<svg width="150" height="129" viewBox="0 0 150 129" fill="none" xmlns="http://www.w3.org/2000/svg">
<path d="M141.705 0.440456L146.283 3.95832L140.948 6.16404L141.705 0.440456ZM66.8494 111.25L66.8936 110.752L66.8494 111.25ZM50.7794 106.306L51.2722 106.221L51.2722 106.221L50.7794 106.306ZM143.891 4.4208C164.984 59.4315 122.661 116.698 66.8053 111.748L66.8936 110.752C121.966 115.632 163.802 59.1436 142.958 4.7788L143.891 4.4208ZM66.8053 111.748C59.4658 111.098 54.2924 109.706 50.7368 108.051L51.1588 107.144C54.5787 108.736 59.6306 110.108 66.8936 110.752L66.8053 111.748ZM50.7368 108.051C47.3096 106.455 45.3566 104.6 44.4436 102.9C43.5397 101.217 43.6327 99.6018 44.4972 98.6893C44.9316 98.2307 45.5337 97.9912 46.1988 98.0379C46.8561 98.0841 47.5378 98.4055 48.1767 98.9943C49.4482 100.166 50.6267 102.459 51.2722 106.221L50.2866 106.39C49.6583 102.728 48.5383 100.687 47.4991 99.7297C46.9828 99.2539 46.5061 99.062 46.1287 99.0354C45.7589 99.0095 45.4498 99.1378 45.2231 99.377C44.7655 99.8601 44.5369 100.96 45.3246 102.427C46.1033 103.877 47.8552 105.606 51.1588 107.144L50.7368 108.051ZM18.5692 127.861C15.4117 127.133 12.8924 126.204 9.88323 124.562L10.3622 123.685C13.2887 125.281 15.7222 126.178 18.7939 126.887L18.5692 127.861ZM51.2722 106.221C51.3489 106.668 51.4066 107.113 51.4458 107.553L50.4498 107.642C50.413 107.228 50.3588 106.811 50.2866 106.39L51.2722 106.221ZM51.4458 107.553C52.038 114.206 48.4206 119.949 42.9046 123.782C37.3901 127.613 29.9255 129.581 22.6647 128.692L22.7863 127.7C29.8021 128.559 37.0205 126.653 42.334 122.961C47.646 119.27 51.0014 113.839 50.4498 107.642L51.4458 107.553ZM1.10978 115.461C2.4551 117.746 3.96617 119.337 5.13663 120.355C5.72181 120.864 6.2214 121.229 6.57171 121.465C6.74684 121.583 6.88455 121.669 6.97686 121.724C7.02302 121.752 7.05781 121.772 7.08024 121.785C7.09146 121.791 7.09958 121.796 7.10449 121.799C7.10694 121.8 7.10859 121.801 7.10942 121.801C7.10983 121.801 7.11004 121.802 7.11004 121.802C7.11004 121.802 7.10999 121.802 7.10989 121.801C7.10984 121.801 7.10972 121.801 7.1097 121.801C7.10957 121.801 7.10943 121.801 6.87264 122.242C6.63586 122.682 6.63569 122.682 6.63551 122.682C6.63543 122.682 6.63524 122.682 6.63508 122.682C6.63477 122.681 6.6344 122.681 6.63399 122.681C6.63315 122.681 6.63211 122.68 6.63086 122.679C6.62836 122.678 6.62504 122.676 6.6209 122.674C6.61262 122.669 6.60109 122.663 6.58644 122.654C6.55714 122.638 6.51534 122.614 6.46206 122.582C6.35551 122.518 6.20298 122.422 6.01261 122.294C5.63192 122.037 5.09945 121.648 4.48045 121.109C3.24255 120.033 1.65676 118.361 0.248039 115.968L1.10978 115.461Z" fill="#BBC5FF"/>
</svg>
