<svg width="10" height="6" viewBox="0 0 10 6" fill="none" xmlns="http://www.w3.org/2000/svg">
    <path fill-rule="evenodd" clip-rule="evenodd"
          d="M9.20711 0.542893C8.81658 0.152369 8.18342 0.152369 7.79289 0.542893L5 3.33579L2.20711 0.542893C1.81658 0.152369 1.18342 0.152369 0.792894 0.542893C0.402369 0.933417 0.402369 1.56658 0.792894 1.95711L4.29289 5.45711C4.68342 5.84763 5.31658 5.84763 5.70711 5.45711L9.20711 1.95711C9.59763 1.56658 9.59763 0.933417 9.20711 0.542893Z"
          fill="#ECF1F9"/>
    <path fill-rule="evenodd" clip-rule="evenodd"
          d="M9.20711 0.542893C8.81658 0.152369 8.18342 0.152369 7.79289 0.542893L5 3.33579L2.20711 0.542893C1.81658 0.152369 1.18342 0.152369 0.792894 0.542893C0.402369 0.933417 0.402369 1.56658 0.792894 1.95711L4.29289 5.45711C4.68342 5.84763 5.31658 5.84763 5.70711 5.45711L9.20711 1.95711C9.59763 1.56658 9.59763 0.933417 9.20711 0.542893Z"
          fill="black" fill-opacity="0.25"/>
</svg>