<svg width="28" height="23" viewBox="0 0 28 23" fill="none" xmlns="http://www.w3.org/2000/svg">
<path d="M14.25 2L8.10332 0.63407C7.73356 0.551903 7.34912 0.685695 7.11027 0.979665L1.15765 8.30597C1.05567 8.43149 1 8.58828 1 8.75V8.75M14.25 2L20.3967 0.63407C20.7664 0.551903 21.1509 0.685695 21.3897 0.979665L27.3424 8.30597C27.4443 8.43149 27.5 8.58828 27.5 8.75V8.75M14.25 2L7.5 8.75M14.25 2L21 8.75M7.5 8.75L14.25 15.5M7.5 8.75H1M14.25 15.5L21 8.75M14.25 15.5V22.25M21 8.75H27.5M27.5 8.75V8.75C27.5 8.91007 27.4364 9.06359 27.3232 9.17678L17.5 19L14.25 22.25M1 8.75V8.75C1 8.91007 1.06359 9.06359 1.17678 9.17678L11 19L14.25 22.25" stroke="#FFC90D" stroke-linecap="round"/>
</svg>
