<svg width="28" height="24" viewBox="0 0 28 24" fill="none" xmlns="http://www.w3.org/2000/svg">
<path d="M21.3897 1.47966L27.3424 8.80597C27.4443 8.93149 27.5 9.08828 27.5 9.25C27.5 9.41007 27.4364 9.56359 27.3232 9.67678L17.5 19.5L14.25 22.75L11 19.5L1.17678 9.67678C1.06359 9.56359 1 9.41007 1 9.25C1 9.08828 1.05567 8.93149 1.15765 8.80597L7.11027 1.47966C7.34912 1.18569 7.73356 1.0519 8.10332 1.13407L14.25 2.5L20.3967 1.13407C20.7664 1.0519 21.1509 1.18569 21.3897 1.47966Z" fill="#FFC90D" fill-opacity="0.6"/>
<path d="M14.25 2.5L8.10332 1.13407C7.73356 1.0519 7.34912 1.18569 7.11027 1.47966L1.15765 8.80597C1.05567 8.93149 1 9.08828 1 9.25V9.25M14.25 2.5L20.3967 1.13407C20.7664 1.0519 21.1509 1.18569 21.3897 1.47966L27.3424 8.80597C27.4443 8.93149 27.5 9.08828 27.5 9.25V9.25M14.25 2.5L7.5 9.25M14.25 2.5L21 9.25M7.5 9.25L14.25 16M7.5 9.25H1M14.25 16L21 9.25M14.25 16V22.75M21 9.25H27.5M27.5 9.25V9.25C27.5 9.41007 27.4364 9.56359 27.3232 9.67678L17.5 19.5L14.25 22.75M1 9.25V9.25C1 9.41007 1.06359 9.56359 1.17678 9.67678L11 19.5L14.25 22.75" stroke="#FFC90D" stroke-linecap="round"/>
</svg>
