<svg width="660" height="375" viewBox="0 0 660 375" fill="none" xmlns="http://www.w3.org/2000/svg">
<path d="M338.603 102.98H214.346C204.154 102.98 195.891 111.242 195.891 121.435V284.412C195.891 294.604 204.154 302.867 214.346 302.867H338.603C348.795 302.867 357.057 294.604 357.057 284.412V121.435C357.057 111.242 348.795 102.98 338.603 102.98Z" fill="#182155"/>
<path d="M338.602 305.221H214.345C202.881 305.221 193.554 295.894 193.554 284.43V121.453C193.554 109.989 202.881 100.662 214.345 100.662H338.602C350.066 100.662 359.393 109.989 359.393 121.453V284.43C359.393 295.894 350.066 305.221 338.602 305.221ZM214.345 105.334C205.453 105.334 198.227 112.56 198.227 121.453V284.43C198.227 293.322 205.453 300.548 214.345 300.548H338.602C347.494 300.548 354.72 293.322 354.72 284.43V121.453C354.72 112.56 347.494 105.334 338.602 105.334H214.345Z" fill="#ECF1F9"/>
<path d="M247.923 102.98H305.026V108.033C305.026 112.633 301.295 116.364 296.695 116.364H256.254C251.654 116.364 247.923 112.633 247.923 108.033V102.98Z" fill="#ECF1F9"/>
<path d="M283.473 216.57C282.876 216.57 282.278 216.334 281.825 215.881L239.592 173.648L197.557 215.682C196.651 216.588 195.166 216.588 194.261 215.682C193.355 214.777 193.355 213.292 194.261 212.386L237.943 168.703C238.849 167.798 240.334 167.798 241.24 168.703L285.14 212.603C286.045 213.509 286.045 214.994 285.14 215.9C284.687 216.352 284.089 216.588 283.492 216.588L283.473 216.57Z" fill="#ECF1F9"/>
<path d="M265.563 192.972C264.965 192.972 264.367 192.736 263.914 192.283C263.009 191.378 263.009 189.893 263.914 188.987L303.975 148.927C304.41 148.492 305.007 148.238 305.623 148.238C306.239 148.238 306.837 148.492 307.271 148.927L346.137 187.792C347.042 188.697 347.042 190.183 346.137 191.088C345.231 191.994 343.746 191.994 342.84 191.088L305.623 153.871L267.211 192.283C266.758 192.736 266.16 192.972 265.563 192.972Z" fill="#ECF1F9"/>
<path d="M298.94 249.495H224.216C222.93 249.495 221.88 248.444 221.88 247.158C221.88 245.873 222.93 244.822 224.216 244.822H298.94C300.226 244.822 301.277 245.873 301.277 247.158C301.277 248.444 300.226 249.495 298.94 249.495Z" fill="#ECF1F9"/>
<path d="M313.827 262.353H239.102C237.817 262.353 236.766 261.303 236.766 260.017C236.766 258.731 237.817 257.681 239.102 257.681H313.827C315.113 257.681 316.163 258.731 316.163 260.017C316.163 261.303 315.113 262.353 313.827 262.353Z" fill="#ECF1F9"/>
<path d="M328.732 275.212H254.008C252.722 275.212 251.671 274.161 251.671 272.876C251.671 271.59 252.722 270.539 254.008 270.539H328.732C330.018 270.539 331.068 271.59 331.068 272.876C331.068 274.161 330.018 275.212 328.732 275.212Z" fill="#ECF1F9"/>
<path d="M343.619 288.07H268.895C267.609 288.07 266.559 287.02 266.559 285.734C266.559 284.448 267.609 283.398 268.895 283.398H343.619C344.905 283.398 345.955 284.448 345.955 285.734C345.955 287.02 344.905 288.07 343.619 288.07Z" fill="#ECF1F9"/>
<path d="M239.574 170.333L234.159 194.022L245.514 190.635L247.923 202.932H258.101L276.465 207.225L239.574 170.333Z" fill="#ECF1F9"/>
<path d="M305.623 150.575L298.94 172.923L309.227 165.208V172.923L288.943 199.709L318.572 178.61L327.084 183.482L339.308 184.242L305.623 150.575Z" fill="#ECF1F9"/>
<path d="M280.268 155.356H204.167C202.881 155.356 201.831 154.305 201.831 153.02C201.831 151.734 202.881 150.683 204.167 150.683H280.268C283.763 150.683 286.607 147.84 286.607 144.345C286.607 140.849 283.763 138.006 280.268 138.006C279.453 138.006 278.656 138.169 277.877 138.477C277.262 138.73 276.555 138.712 275.958 138.404C275.36 138.115 274.907 137.571 274.744 136.919C273.458 132.211 269.148 128.914 264.258 128.914C259.368 128.914 255.384 131.939 253.917 136.43C253.591 137.463 252.577 138.133 251.508 138.042C251.345 138.042 251.201 138.024 251.038 138.024C247.542 138.024 244.699 140.867 244.699 144.363C244.699 145.649 243.648 146.699 242.363 146.699C241.077 146.699 240.026 145.649 240.026 144.363C240.026 138.604 244.463 133.877 250.096 133.388C252.595 127.864 258.083 124.26 264.258 124.26C270.434 124.26 275.994 127.955 278.457 133.496C279.055 133.406 279.652 133.352 280.268 133.352C286.335 133.352 291.279 138.296 291.279 144.363C291.279 150.43 286.335 155.374 280.268 155.374V155.356Z" fill="#ECF1F9"/>
<path d="M511.707 128.74C510.675 128.74 509.606 128.577 508.574 128.251L492.021 123.036C489.34 122.203 487.167 120.355 485.863 117.874C484.577 115.393 484.324 112.55 485.157 109.887L502.96 53.3461C503.793 50.6657 505.64 48.4924 508.121 47.1884C510.602 45.9026 513.446 45.6491 516.126 46.4821L532.661 51.698C535.341 52.5311 537.515 54.3784 538.819 56.8595C540.104 59.3407 540.358 62.184 539.525 64.8644L521.722 121.406C520.31 125.879 516.162 128.74 511.707 128.74ZM509.968 123.796C513.029 124.756 516.289 123.054 517.267 119.993L535.07 63.4518C535.541 61.9667 535.396 60.391 534.671 59.0146C533.947 57.6382 532.752 56.6241 531.266 56.1532L514.713 50.9373C513.228 50.4665 511.653 50.6113 510.276 51.3358C508.9 52.0602 507.886 53.2736 507.415 54.7406L489.612 111.282C489.141 112.767 489.286 114.343 490.011 115.719C490.735 117.095 491.93 118.11 493.415 118.58L509.968 123.796Z" fill="#ECF1F9"/>
<path d="M515.456 90.183C514.188 90.183 512.902 89.9837 511.652 89.5853C505.024 87.5026 501.311 80.4033 503.412 73.7748C504.426 70.5511 506.618 67.9251 509.606 66.3676C512.594 64.8101 516.017 64.5022 519.223 65.5164C522.428 66.5306 525.072 68.7219 526.63 71.7102C528.187 74.6984 528.495 78.1213 527.481 81.3269C526.467 84.5506 524.275 87.1766 521.287 88.7341C519.458 89.694 517.484 90.1649 515.474 90.1649L515.456 90.183ZM515.437 69.6093C514.17 69.6093 512.92 69.9172 511.779 70.5149C509.896 71.4928 508.519 73.159 507.867 75.1693C506.545 79.3528 508.881 83.808 513.065 85.1301C517.248 86.4341 521.704 84.1159 523.026 79.9324C524.348 75.7488 522.012 71.2936 517.828 69.9716C517.049 69.718 516.234 69.6093 515.437 69.6093Z" fill="#ECF1F9"/>
<path d="M179.736 87.26C179.157 87.26 178.577 87.0427 178.125 86.608C162.912 72.029 143.008 62.7201 122.072 60.4201C120.786 60.2752 119.863 59.1161 120.008 57.8484C120.153 56.5625 121.293 55.6389 122.579 55.7838C144.529 58.2106 165.411 67.9541 181.348 83.2394C182.272 84.1268 182.308 85.6119 181.421 86.5356C180.968 87.0064 180.352 87.26 179.736 87.26Z" fill="#ECF1F9"/>
<path d="M278.349 370.962C275.035 370.962 271.721 369.803 269.294 367.521C263.444 362.016 264.205 352.834 267.881 347.002C269.221 344.865 270.888 343.036 272.699 341.478C269.113 340.374 265.237 339.812 261.398 339.396C249.952 338.146 238.325 337.947 226.843 338.762C225.557 338.87 224.434 337.892 224.343 336.607C224.253 335.321 225.213 334.198 226.498 334.107C238.252 333.256 250.169 333.474 261.887 334.759C266.921 335.303 272.354 336.172 277.281 338.2C279.526 336.842 281.826 335.737 283.927 334.814C301.585 327.062 321.742 324.78 340.686 328.403C341.954 328.638 342.787 329.869 342.533 331.137C342.298 332.405 341.066 333.22 339.798 333.003C321.778 329.544 302.599 331.717 285.793 339.088C284.652 339.595 283.438 340.138 282.225 340.772C283.42 341.551 284.543 342.438 285.593 343.452C289.433 347.111 291.642 352.707 291.371 358.05C291.153 362.306 289.378 365.946 286.336 368.318C284.054 370.093 281.192 370.962 278.313 370.962H278.349ZM277.715 343.507C275.451 345.119 273.369 347.075 271.847 349.501C269.131 353.812 268.624 360.476 272.518 364.117C275.379 366.815 280.414 367.032 283.511 364.624C286.01 362.668 286.644 359.843 286.752 357.814C286.952 353.848 285.249 349.538 282.406 346.839C281.011 345.499 279.418 344.412 277.715 343.507Z" fill="#ECF1F9"/>
<path d="M216.99 77.3897C216.121 77.3897 215.306 76.9189 214.889 76.0858C207.609 61.3256 196.869 48.2317 183.793 38.2165C182.761 37.4378 182.58 35.9708 183.359 34.9385C184.138 33.9243 185.623 33.7251 186.637 34.5038C200.274 44.9536 211.485 58.6271 219.073 74.0211C219.652 75.1802 219.163 76.5747 218.004 77.1543C217.678 77.3173 217.316 77.3897 216.972 77.3897H216.99Z" fill="#ECF1F9"/>
<path d="M261.452 23.5832C261.144 23.5832 260.836 23.5289 260.546 23.4202C260.256 23.2934 260.021 23.1304 259.785 22.9131C259.351 22.4784 259.115 21.8808 259.115 21.265C259.115 20.6493 259.369 20.0516 259.785 19.617C260.329 19.0917 261.144 18.8382 261.904 18.9831C262.067 19.0193 262.194 19.0555 262.339 19.128C262.484 19.1823 262.629 19.2548 262.737 19.3453C262.864 19.4177 262.991 19.5083 263.1 19.617C263.534 20.0516 263.788 20.6674 263.788 21.265C263.788 21.8627 263.534 22.4784 263.1 22.9131C262.864 23.1304 262.611 23.3115 262.339 23.4202C262.067 23.547 261.759 23.5832 261.452 23.5832Z" fill="#ECF1F9"/>
<path d="M260.039 52.8499C259.985 51.564 261.017 50.4774 262.303 50.4593C263.589 50.4049 264.676 51.4373 264.712 52.7412C264.748 54.0271 263.734 55.0956 262.43 55.1318H262.358C261.108 55.1318 260.076 54.1176 260.039 52.8499ZM259.858 46.5474C259.804 45.2616 260.836 44.1749 262.122 44.1568C263.408 44.1206 264.495 45.1348 264.531 46.4387C264.567 47.7065 263.553 48.8112 262.249 48.8293H262.195C260.927 48.8293 259.895 47.8333 259.858 46.5474ZM259.677 40.2449C259.641 38.9591 260.655 37.8724 261.959 37.8362C263.245 37.8 264.332 38.8142 264.35 40.1181C264.386 41.404 263.372 42.4906 262.068 42.5087H262.013C260.746 42.5087 259.713 41.5127 259.677 40.2449ZM259.496 33.9424C259.46 32.6566 260.474 31.57 261.778 31.5337C263.064 31.4975 264.151 32.5117 264.169 33.8157C264.223 35.1015 263.191 36.1881 261.905 36.2062H261.832C260.565 36.2062 259.55 35.2102 259.496 33.9424ZM259.315 27.64C259.261 26.3541 260.275 25.2674 261.579 25.2312C262.865 25.195 263.951 26.2092 263.969 27.5132C264.024 28.799 263.01 29.8857 261.706 29.9038H261.651C260.384 29.9038 259.351 28.9077 259.297 27.64H259.315Z" fill="#ECF1F9"/>
<path d="M262.556 61.4344C262.248 61.4344 261.94 61.38 261.65 61.2713C261.379 61.1445 261.125 60.9816 260.89 60.7642C260.455 60.3296 260.22 59.7319 260.22 59.1162C260.22 58.9532 260.22 58.8083 260.256 58.6634C260.292 58.5004 260.328 58.3736 260.401 58.2288C260.455 58.0839 260.528 57.9571 260.618 57.8303C260.691 57.7035 260.799 57.5768 260.89 57.4681C261.759 56.5988 263.335 56.5988 264.204 57.4681C264.295 57.5768 264.403 57.7035 264.476 57.8303C264.566 57.9571 264.639 58.102 264.693 58.2288C264.747 58.3736 264.802 58.5185 264.838 58.6634C264.874 58.8083 264.892 58.9532 264.892 59.1162C264.892 59.7319 264.639 60.3115 264.204 60.7642C263.751 61.1989 263.154 61.4524 262.556 61.4524V61.4344Z" fill="#ECF1F9"/>
<path d="M332.445 85.8292C332.083 85.8292 331.702 85.7387 331.34 85.5576C330.199 84.9418 329.764 83.5292 330.38 82.3882C342.424 59.8043 359.991 40.3174 381.198 25.9919C382.267 25.2675 383.716 25.5572 384.44 26.6258C385.165 27.6943 384.875 29.1431 383.806 29.8675C363.233 43.7583 346.191 62.684 334.491 84.5797C334.075 85.3765 333.26 85.8112 332.427 85.8112L332.445 85.8292Z" fill="#ECF1F9"/>
<path d="M374.951 71.5762C374.643 71.5762 374.335 71.5219 374.045 71.4132C373.773 71.2864 373.52 71.1234 373.302 70.9061C373.067 70.6888 372.904 70.4352 372.795 70.1636C372.669 69.8738 372.614 69.5659 372.614 69.258C372.614 68.6423 372.886 68.0446 373.321 67.61C373.411 67.5013 373.538 67.4108 373.665 67.3202C373.791 67.2478 373.936 67.1572 374.063 67.121C374.208 67.0667 374.353 67.0124 374.498 66.9761C375.258 66.8131 376.073 67.0667 376.617 67.61C376.725 67.7186 376.816 67.8454 376.888 67.9722C376.979 68.099 377.051 68.2439 377.106 68.3706C377.16 68.5155 377.214 68.6423 377.251 68.8053C377.287 68.9502 377.305 69.095 377.305 69.258C377.305 69.8738 377.051 70.4715 376.617 70.9061C376.381 71.1234 376.128 71.3045 375.856 71.4132C375.584 71.5219 375.258 71.5762 374.969 71.5762H374.951Z" fill="#ECF1F9"/>
<path d="M360.317 84.3261C359.394 83.4387 359.376 81.9536 360.263 81.0299C361.169 80.1063 362.654 80.0701 363.559 80.9756C364.501 81.8811 364.501 83.3662 363.614 84.2718C363.143 84.7426 362.545 84.9962 361.929 84.9962C361.332 84.9962 360.752 84.7607 360.299 84.3261H360.317ZM364.664 79.8528C363.722 78.9654 363.722 77.4803 364.61 76.5566C365.497 75.633 366.982 75.5968 367.906 76.5023C368.829 77.4078 368.848 78.8929 367.96 79.7984C367.489 80.2693 366.892 80.5229 366.276 80.5229C365.678 80.5229 365.099 80.3055 364.664 79.8528ZM368.992 75.3976C368.051 74.492 368.033 73.007 368.938 72.1014C369.825 71.1597 371.311 71.1597 372.234 72.0471C373.158 72.9526 373.176 74.4377 372.289 75.3433C371.836 75.8322 371.22 76.0677 370.604 76.0677C370.025 76.0677 369.427 75.8503 368.992 75.4157V75.3976Z" fill="#ECF1F9"/>
<path d="M357.619 89.4695C357.003 89.4695 356.406 89.216 355.971 88.7813C355.518 88.3285 355.283 87.7309 355.283 87.1152C355.283 86.9703 355.283 86.8254 355.337 86.6624C355.337 86.5175 355.391 86.3726 355.464 86.2277C355.518 86.0828 355.591 85.9561 355.681 85.8293C355.754 85.7025 355.862 85.5758 355.971 85.4671C356.496 84.9419 357.311 84.6883 358.072 84.8332C358.235 84.8694 358.362 84.9057 358.506 84.9781C358.651 85.0325 358.778 85.1049 358.905 85.1955C359.032 85.2679 359.158 85.3584 359.267 85.4671C359.376 85.5758 359.466 85.7025 359.539 85.8293C359.629 85.9561 359.702 86.1009 359.756 86.2277C359.81 86.3726 359.865 86.5175 359.901 86.6624C359.937 86.8254 359.955 86.9703 359.955 87.1152C359.955 87.749 359.702 88.3285 359.267 88.7813C358.814 89.216 358.235 89.4695 357.619 89.4695Z" fill="#ECF1F9"/>
<path d="M371.944 120.439C371.346 120.439 370.749 120.203 370.296 119.769C369.372 118.863 369.372 117.378 370.296 116.472C383.806 102.853 400.486 92.2223 418.524 85.6844C419.738 85.2316 421.078 85.8655 421.513 87.0789C421.947 88.2923 421.331 89.6325 420.118 90.0672C402.732 96.3697 386.65 106.62 373.61 119.75C373.157 120.203 372.56 120.439 371.944 120.439Z" fill="#ECF1F9"/>
<path d="M168.489 270.105C168.163 270.105 167.819 270.032 167.493 269.887C166.316 269.344 165.827 267.949 166.37 266.772C169.431 260.252 172.582 253.515 173.777 246.452C174.647 241.327 174.321 236.383 172.89 232.217C171.278 235.368 169.232 237.922 166.787 239.878C160.901 244.569 150.958 245.474 145.507 239.298C142.881 236.328 141.921 232.145 142.863 227.834C143.913 223.035 147.173 218.924 151.338 217.095C157.858 214.251 166.062 216.171 171.622 221.514C171.713 221.097 171.785 220.663 171.876 220.228C173.397 211.734 173.089 202.842 170.97 194.493C170.119 191.179 169.069 188.371 167.783 186.017C165.718 188.933 162.947 192.157 159.108 194.04C154.182 196.449 148.35 195.815 144.909 192.464C142.627 190.255 141.595 186.995 142.084 183.5C142.627 179.552 144.982 176.002 148.241 174.209C153.783 171.166 161.426 172.416 166.805 177.215C167.004 177.396 167.203 177.578 167.402 177.759C177.074 160.119 178.07 137.77 169.684 119.443C169.141 118.265 169.666 116.889 170.844 116.346C172.021 115.802 173.397 116.328 173.94 117.505C183.177 137.698 181.8 162.455 170.608 181.598C172.709 184.713 174.321 188.589 175.516 193.298C177.816 202.299 178.142 211.879 176.494 221.025C176.168 222.836 175.77 224.538 175.281 226.15C178.649 231.891 179.754 239.244 178.414 247.177C177.092 254.874 173.814 261.9 170.626 268.71C170.228 269.561 169.395 270.05 168.507 270.05L168.489 270.105ZM157.786 220.481C156.192 220.481 154.653 220.771 153.222 221.387C150.397 222.619 148.187 225.48 147.445 228.849C146.811 231.692 147.39 234.372 149.02 236.202C152.66 240.313 159.778 239.498 163.889 236.22C166.551 234.083 168.652 230.949 170.137 226.875C167.149 222.836 162.313 220.481 157.786 220.481ZM154.888 177.252C153.367 177.252 151.845 177.578 150.469 178.338C148.513 179.407 147.028 181.689 146.702 184.152C146.539 185.329 146.521 187.538 148.169 189.132C150.451 191.342 154.363 191.16 157.061 189.856C160.502 188.172 163.02 184.822 164.831 182.087C164.867 182.033 164.885 181.996 164.921 181.942C164.523 181.507 164.124 181.109 163.708 180.729C161.444 178.719 158.148 177.252 154.924 177.252H154.888Z" fill="#ECF1F9"/>
<path d="M139.694 285.064C139.078 285.064 138.481 284.828 138.046 284.376C137.593 283.941 137.358 283.343 137.358 282.746C137.358 282.148 137.611 281.514 138.046 281.08C138.897 280.228 140.473 280.228 141.342 281.08C141.777 281.514 142.03 282.13 142.03 282.746C142.03 283.361 141.777 283.941 141.342 284.376C140.889 284.828 140.31 285.064 139.694 285.064Z" fill="#ECF1F9"/>
<path d="M172.438 286.241C171.152 286.078 170.247 284.919 170.374 283.633C170.537 282.347 171.696 281.442 172.981 281.587C174.267 281.75 175.173 282.891 175.028 284.195C174.883 285.372 173.869 286.259 172.728 286.259C172.637 286.259 172.547 286.259 172.456 286.259L172.438 286.241ZM165.918 285.571C164.632 285.462 163.673 284.321 163.781 283.054C163.89 281.768 165.031 280.808 166.317 280.917C167.603 281.025 168.544 282.166 168.436 283.434C168.345 284.647 167.313 285.589 166.118 285.589C166.118 285.589 165.973 285.589 165.918 285.589V285.571ZM159.398 285.118C158.113 285.064 157.117 283.941 157.189 282.673C157.261 281.387 158.366 280.391 159.652 280.464C160.938 280.518 161.934 281.623 161.862 282.909C161.807 284.158 160.775 285.118 159.525 285.118H159.398ZM152.879 284.883C151.593 284.883 150.561 283.796 150.597 282.492C150.633 281.224 151.683 280.192 152.987 280.21C154.273 280.246 155.287 281.297 155.269 282.601C155.233 283.869 154.201 284.883 152.933 284.883H152.879ZM143.968 282.583C143.968 281.297 144.982 280.228 146.268 280.192C147.554 280.192 148.623 281.224 148.641 282.492C148.641 283.778 147.627 284.847 146.341 284.865C145.055 284.865 144.004 283.832 143.986 282.565L143.968 282.583Z" fill="#ECF1F9"/>
<path d="M179.266 287.147C178.65 287.147 178.071 286.911 177.618 286.458C177.183 286.024 176.93 285.426 176.93 284.81C176.93 284.647 176.93 284.503 176.984 284.358C177.02 284.195 177.056 284.068 177.129 283.923C177.183 283.778 177.256 283.651 177.346 283.525C177.419 283.398 177.509 283.271 177.636 283.162C178.179 282.619 178.994 282.365 179.755 282.528C179.9 282.565 180.045 282.601 180.19 282.655C180.334 282.71 180.461 282.8 180.588 282.873C180.715 282.963 180.823 283.054 180.932 283.162C181.041 283.271 181.131 283.398 181.222 283.525C181.294 283.651 181.385 283.796 181.439 283.923C181.494 284.068 181.53 284.195 181.566 284.358C181.602 284.503 181.62 284.647 181.62 284.81C181.62 285.118 181.566 285.426 181.457 285.698C181.331 285.988 181.168 286.241 180.95 286.458C180.733 286.676 180.479 286.857 180.208 286.966C179.918 287.074 179.61 287.129 179.302 287.129L179.266 287.147Z" fill="#ECF1F9"/>
<path d="M159.018 325.668C158.71 325.668 158.402 325.614 158.13 325.487C157.859 325.378 157.587 325.215 157.37 324.98C157.153 324.762 156.971 324.509 156.863 324.237C156.736 323.965 156.682 323.658 156.682 323.35C156.682 323.187 156.682 323.042 156.736 322.879C156.772 322.734 156.808 322.589 156.881 322.444C156.935 322.299 157.008 322.173 157.098 322.046C157.171 321.919 157.261 321.792 157.37 321.684C157.913 321.158 158.728 320.905 159.489 321.05C159.634 321.086 159.779 321.122 159.923 321.195C160.068 321.249 160.195 321.321 160.322 321.412C160.449 321.484 160.575 321.593 160.666 321.702C161.101 322.136 161.354 322.752 161.354 323.368C161.354 323.658 161.3 323.984 161.191 324.255C161.083 324.527 160.901 324.78 160.684 324.998C160.467 325.233 160.213 325.396 159.942 325.505C159.652 325.632 159.344 325.686 159.036 325.686L159.018 325.668Z" fill="#ECF1F9"/>
<path d="M163.002 321.774C162.532 320.579 163.147 319.22 164.343 318.75C165.538 318.279 166.896 318.876 167.367 320.072C167.838 321.285 167.24 322.625 166.045 323.096C165.755 323.205 165.465 323.259 165.194 323.259C164.252 323.259 163.383 322.68 163.02 321.756L163.002 321.774ZM169.178 319.383C168.707 318.188 169.305 316.83 170.518 316.359C171.714 315.888 173.072 316.486 173.543 317.681C174.014 318.876 173.416 320.235 172.203 320.706C171.931 320.814 171.641 320.869 171.369 320.869C170.428 320.869 169.54 320.289 169.196 319.365L169.178 319.383ZM175.354 316.993C174.883 315.798 175.481 314.439 176.676 313.968C177.871 313.498 179.229 314.095 179.7 315.29C180.171 316.504 179.574 317.844 178.36 318.315C178.088 318.424 177.799 318.478 177.527 318.478C176.585 318.478 175.698 317.898 175.354 316.975V316.993Z" fill="#ECF1F9"/>
<path d="M183.702 316.069C183.069 316.069 182.489 315.816 182.054 315.381C181.602 314.946 181.366 314.349 181.366 313.733C181.366 313.57 181.366 313.425 181.421 313.262C181.457 313.117 181.493 312.972 181.547 312.827C181.602 312.683 181.692 312.556 181.765 312.429C181.837 312.302 181.946 312.194 182.054 312.085C182.58 311.542 183.395 311.288 184.155 311.451C184.318 311.451 184.445 311.505 184.59 311.578C184.735 311.632 184.88 311.723 184.988 311.795C185.115 311.868 185.242 311.976 185.351 312.085C185.785 312.52 186.039 313.117 186.039 313.733C186.039 314.349 185.785 314.928 185.351 315.381C185.133 315.598 184.862 315.78 184.59 315.888C184.3 316.015 184.01 316.069 183.702 316.069Z" fill="#ECF1F9"/>
<path d="M235.916 74.0936C235.825 72.8078 236.803 71.6849 238.089 71.5762C239.375 71.5038 240.48 72.4637 240.588 73.7495C240.661 75.0354 239.701 76.1401 238.415 76.2488H238.252C237.039 76.2488 236.006 75.307 235.916 74.0755V74.0936ZM235.427 67.9179C235.318 66.632 236.26 65.4911 237.546 65.3824C238.832 65.2738 239.973 66.2155 240.081 67.5013C240.19 68.7872 239.248 69.9282 237.944 70.0369H237.745C236.55 70.0369 235.535 69.1132 235.427 67.9179ZM234.829 61.7422C234.684 60.4563 235.626 59.3154 236.894 59.1705C238.18 59.0256 239.339 59.9674 239.465 61.2532C239.61 62.5391 238.669 63.68 237.401 63.8068C237.31 63.8068 237.238 63.8068 237.147 63.8068C235.97 63.8068 234.956 62.9193 234.829 61.724V61.7422ZM234.123 55.5846C233.96 54.2987 234.883 53.1396 236.169 52.9767C237.455 52.8137 238.614 53.7192 238.777 55.0232C238.94 56.309 238.017 57.4681 236.731 57.6311C236.64 57.6311 236.55 57.6311 236.459 57.6311C235.282 57.6311 234.286 56.7618 234.141 55.5665L234.123 55.5846ZM233.326 49.4451C233.145 48.1592 234.05 46.9821 235.318 46.8191C236.604 46.638 237.781 47.5254 237.944 48.7931C238.107 50.079 237.22 51.2561 235.952 51.4372C235.843 51.4372 235.735 51.4372 235.626 51.4372C234.467 51.4372 233.471 50.6042 233.326 49.427V49.4451ZM232.42 43.3237C232.221 42.056 233.091 40.8426 234.376 40.6433C235.644 40.4622 236.839 41.3134 237.039 42.5993C237.238 43.8851 236.369 45.0804 235.083 45.2797C234.956 45.2797 234.829 45.2797 234.702 45.2797C233.58 45.2797 232.583 44.4647 232.42 43.3237ZM231.406 37.2204C231.189 35.9346 232.022 34.7212 233.308 34.5038C234.594 34.2865 235.789 35.1377 236.006 36.4055C236.242 37.6732 235.391 38.8866 234.105 39.1039C233.978 39.1402 233.833 39.1583 233.706 39.1583C232.602 39.1583 231.624 38.3433 231.424 37.2204H231.406ZM230.301 31.1172C230.048 29.8494 230.881 28.636 232.149 28.3825C233.417 28.1289 234.648 28.9801 234.883 30.2297C235.137 31.4975 234.286 32.729 233.036 32.9645C232.891 32.9645 232.746 33.0007 232.602 33.0007C231.497 33.0007 230.519 32.2219 230.32 31.0991L230.301 31.1172ZM229.088 25.0501C228.816 23.7824 229.631 22.5327 230.899 22.2792C232.167 22.0075 233.398 22.8225 233.652 24.0902C233.924 25.3761 233.109 26.5895 231.841 26.8612C231.678 26.8974 231.533 26.9155 231.37 26.9155C230.283 26.9155 229.305 26.173 229.088 25.0682V25.0501ZM227.766 18.9831C227.476 17.7153 228.273 16.4838 229.523 16.194C230.79 15.9224 232.022 16.7011 232.33 17.9508C232.602 19.2185 231.823 20.45 230.555 20.7579C230.392 20.7941 230.211 20.8122 230.048 20.8122C228.979 20.8122 228.02 20.0878 227.766 18.9831ZM226.353 12.9704C226.046 11.7026 226.824 10.453 228.074 10.127C229.342 9.8191 230.591 10.5979 230.899 11.8475C231.207 13.1153 230.446 14.3648 229.179 14.6908C228.998 14.7452 228.798 14.7452 228.635 14.7452C227.567 14.7452 226.625 14.0208 226.353 12.9704ZM224.85 6.95763C224.506 5.70799 225.249 4.44024 226.516 4.11425C227.766 3.78826 229.034 4.53082 229.36 5.78045C229.686 7.03008 228.943 8.29783 227.675 8.62383C227.494 8.67816 227.277 8.69623 227.096 8.69623C226.046 8.69623 225.104 8.00804 224.832 6.95763H224.85Z" fill="#ECF1F9"/>
<path d="M306.764 70.5076C301.277 70.5076 295.843 68.7147 291.624 65.2918C284.905 59.8586 281.735 50.3687 283.908 42.2189C286.172 33.7432 294.05 27.2233 302.617 26.7163C311.382 26.1548 320.13 32.3124 322.484 40.6071C324.132 46.4387 322.502 52.7593 318.427 56.3271C316.055 58.3917 312.668 59.4602 309.39 59.1342C306.402 58.8444 303.812 57.5042 302.128 55.331C300.136 52.7955 299.755 49.0285 301.132 45.7505C302.399 42.726 304.917 40.7157 307.833 40.3897C309.1 40.2267 310.277 41.1685 310.422 42.4544C310.567 43.7402 309.644 44.8993 308.358 45.0442C307.144 45.189 306.04 46.1308 305.442 47.5796C304.718 49.3001 304.881 51.2561 305.822 52.4695C306.71 53.6105 308.14 54.3349 309.843 54.4979C311.871 54.6971 313.936 54.0633 315.367 52.8136C318.119 50.423 319.17 46.0222 318.011 41.8929C316.236 35.6086 309.625 31.0084 302.925 31.3888C296.405 31.7691 290.193 36.9487 288.454 43.4142C286.734 49.8435 289.269 57.3413 294.594 61.6335C299.791 65.8351 307.597 66.9761 314.026 64.4587C315.222 63.9878 316.58 64.5855 317.051 65.7808C317.522 66.9761 316.924 68.3344 315.729 68.8052C312.867 69.9281 309.825 70.4714 306.8 70.4714L306.764 70.5076Z" fill="#ECF1F9"/>
<path d="M450.771 99.6315C449.829 98.7803 449.721 97.2952 450.608 96.3353C451.459 95.3755 452.944 95.2849 453.904 96.1542C454.864 97.0054 454.955 98.4905 454.085 99.4504C453.633 99.9574 452.981 100.229 452.347 100.229C451.804 100.229 451.242 100.03 450.789 99.6315H450.771ZM455.027 95.0676C454.212 94.0534 454.375 92.5865 455.371 91.7715C456.367 90.9384 457.852 91.1013 458.667 92.1155C459.482 93.1116 459.338 94.5786 458.323 95.3936C457.889 95.7377 457.382 95.9007 456.856 95.9007C456.168 95.9007 455.498 95.6109 455.027 95.0495V95.0676ZM459.953 91.2281C459.301 90.1234 459.682 88.6926 460.786 88.0406C461.891 87.4068 463.322 87.769 463.974 88.8738C464.608 89.9966 464.245 91.4273 463.141 92.0612C462.76 92.2785 462.362 92.3872 461.964 92.3872C461.167 92.3872 460.37 91.9706 459.953 91.21V91.2281ZM465.386 88.2037C464.916 86.9903 465.513 85.6319 466.709 85.1611C467.904 84.6902 469.262 85.2879 469.733 86.4832C470.204 87.6785 469.606 89.0549 468.411 89.5257C468.139 89.6344 467.831 89.6887 467.56 89.6887C466.618 89.6887 465.731 89.1273 465.386 88.2037Z" fill="#ECF1F9"/>
<path d="M161.046 112.361C160.014 111.601 159.779 110.134 160.539 109.101C161.3 108.051 162.767 107.834 163.817 108.612C164.868 109.373 165.085 110.84 164.324 111.872C163.872 112.488 163.147 112.814 162.441 112.814C161.952 112.814 161.481 112.669 161.046 112.361ZM156.066 109.156C154.943 108.54 154.545 107.091 155.161 105.968C155.794 104.845 157.225 104.447 158.348 105.063C159.489 105.678 159.869 107.127 159.254 108.25C158.819 109.011 158.022 109.445 157.207 109.445C156.809 109.445 156.428 109.355 156.066 109.156ZM150.705 106.566C149.51 106.077 148.949 104.719 149.419 103.523C149.908 102.328 151.267 101.748 152.48 102.256C153.657 102.745 154.237 104.103 153.766 105.298C153.386 106.204 152.516 106.765 151.593 106.765C151.303 106.765 150.995 106.711 150.705 106.584V106.566ZM145.073 104.664C143.823 104.32 143.099 103.052 143.443 101.803C143.769 100.553 145.055 99.8287 146.304 100.155C147.554 100.499 148.278 101.785 147.934 103.034C147.663 104.067 146.703 104.755 145.671 104.755C145.471 104.755 145.272 104.755 145.055 104.682L145.073 104.664Z" fill="#ECF1F9"/>
<path d="M448.786 244.422C430.545 244.422 396.032 242.1 396.032 233.312C396.032 224.524 430.545 222.201 448.786 222.201C467.028 222.201 501.541 224.524 501.541 233.312C501.541 242.1 467.028 244.422 448.786 244.422ZM448.786 225.706C414.681 225.706 399.536 231.22 399.536 233.312C399.536 235.403 414.681 240.918 448.786 240.918C482.892 240.918 498.036 235.403 498.036 233.312C498.036 231.22 482.892 225.706 448.786 225.706Z" fill="white"/>
<path d="M448.379 315.839C446.518 315.839 444.997 314.345 444.956 312.484L442.837 190.731H453.907L451.788 312.484C451.761 314.345 450.24 315.839 448.365 315.839H448.379Z" fill="#00BADB"/>
<path d="M448.379 317.591C445.581 317.591 443.259 315.309 443.204 312.511L441.085 190.758C441.085 190.282 441.262 189.834 441.588 189.495C441.914 189.155 442.362 188.965 442.838 188.965H453.907C454.383 188.965 454.831 189.155 455.157 189.495C455.483 189.834 455.673 190.282 455.659 190.758L453.541 312.511C453.486 315.309 451.177 317.591 448.366 317.591H448.379ZM444.63 192.469L446.722 312.443C446.736 313.339 447.483 314.073 448.379 314.073C449.276 314.073 450.023 313.339 450.036 312.443L452.128 192.469H444.617H444.63Z" fill="white"/>
<path d="M453.677 193.501C453.228 193.501 452.794 193.339 452.454 192.999C451.762 192.32 451.748 191.206 452.427 190.527C457.032 185.841 459.68 179.389 459.707 172.815C459.734 167.315 457.602 161.107 454.234 156.476C452.97 160.116 450.797 163.389 448.488 166.676L448.108 167.219C445.541 170.86 442.892 174.622 441.833 178.778C440.855 182.595 441.412 187.58 444.821 190.147C445.595 190.731 445.758 191.831 445.174 192.605C444.59 193.379 443.49 193.542 442.716 192.958C438.003 189.427 437.174 182.853 438.437 177.922C439.66 173.128 442.498 169.107 445.242 165.209L445.622 164.68C448.393 160.741 450.947 156.829 451.653 152.469C451.762 151.817 452.223 151.274 452.862 151.083C453.487 150.88 454.179 151.056 454.641 151.532C459.789 156.856 463.239 165.427 463.212 172.856C463.184 180.327 460.156 187.675 454.926 193.013C454.587 193.366 454.125 193.542 453.677 193.542V193.501Z" fill="white"/>
<path d="M447.062 192.32C446.696 192.32 446.343 192.211 446.017 191.98C445.242 191.41 445.066 190.31 445.65 189.535C452.509 180.231 454.954 167.967 452.169 156.747C451.939 155.81 452.509 154.859 453.446 154.629C454.383 154.398 455.334 154.968 455.565 155.905C458.594 168.13 455.945 181.481 448.475 191.614C448.135 192.075 447.606 192.32 447.062 192.32Z" fill="white"/>
<path d="M442.349 189.25C441.996 189.25 441.642 189.142 441.33 188.924C440.542 188.367 440.352 187.267 440.909 186.479C446.125 179.131 449.018 170.112 449.031 161.094C449.031 160.129 449.819 159.342 450.783 159.342C451.748 159.342 452.535 160.129 452.535 161.094C452.508 170.832 449.398 180.557 443.761 188.503C443.422 188.979 442.878 189.237 442.335 189.237L442.349 189.25Z" fill="white"/>
<path d="M429.499 316.545C427.516 316.871 425.628 315.553 425.248 313.584L403.91 203.824L417.859 201.542L432.583 312.389C432.841 314.385 431.483 316.219 429.499 316.545Z" fill="#FB51FF"/>
<path d="M428.875 318.351C426.294 318.351 424.04 316.545 423.524 313.923L402.186 204.164C402.09 203.702 402.186 203.213 402.471 202.833C402.742 202.439 403.163 202.181 403.625 202.099L417.574 199.817C418.05 199.736 418.525 199.858 418.906 200.143C419.286 200.429 419.53 200.85 419.598 201.325L434.322 312.171C434.715 315.119 432.719 317.808 429.785 318.297C429.486 318.351 429.174 318.365 428.875 318.365V318.351ZM405.975 205.264L426.974 313.258C427.177 314.304 428.169 314.997 429.215 314.82C430.274 314.643 430.994 313.679 430.844 312.62L416.352 203.566L405.961 205.264H405.975Z" fill="white"/>
<path d="M403.91 205.576C403.258 205.576 402.634 205.21 402.335 204.598L396.182 192.062C395.774 191.247 396.073 190.255 396.861 189.78C397.228 189.549 406.056 183.953 403.612 169.012C403.449 168.062 404.1 167.152 405.065 167.002C406.029 166.853 406.926 167.491 407.075 168.456C409.357 182.378 402.892 189.427 399.985 191.831L405.499 203.064C405.921 203.933 405.567 204.979 404.698 205.413C404.454 205.536 404.182 205.59 403.924 205.59L403.91 205.576Z" fill="white"/>
<path d="M417.859 203.294C417.778 203.294 417.71 203.294 417.628 203.281C416.664 203.159 415.998 202.276 416.121 201.311L417.764 188.911C415.835 188.164 412.44 186.439 409.384 182.717L410.552 189.834C410.715 190.785 410.063 191.695 409.099 191.844C408.134 192.007 407.238 191.355 407.088 190.391L403.584 168.999C403.421 168.048 404.073 167.138 405.037 166.989C406.002 166.839 406.898 167.478 407.048 168.442C409.492 183.383 419.638 185.882 420.073 185.977C420.956 186.181 421.54 187.023 421.431 187.919L419.584 201.773C419.462 202.656 418.715 203.294 417.846 203.294H417.859Z" fill="white"/>
<path d="M411.761 189.644C412.033 191.26 410.933 192.795 409.303 193.067C407.687 193.339 406.152 192.238 405.88 190.608C405.608 188.992 406.709 187.457 408.338 187.186C409.955 186.914 411.49 188.014 411.761 189.644Z" fill="white"/>
<path d="M485.755 201.007L499.763 204.275L475.663 307.594C474.814 311.231 471.16 313.503 467.522 312.655L466.729 312.47C463.091 311.621 460.82 307.967 461.668 304.329L485.768 201.01L485.755 201.007Z" fill="#FFB51E"/>
<g style="mix-blend-mode:multiply" opacity="0.44">
<path d="M467.109 314.331C466.973 314.331 466.838 314.317 466.715 314.29C465.778 314.073 465.181 313.122 465.411 312.185L491.069 202.262C491.286 201.325 492.237 200.741 493.174 200.958C494.111 201.176 494.709 202.126 494.478 203.064L468.821 312.986C468.631 313.801 467.911 314.345 467.109 314.345V314.331Z" fill="#FFB51E"/>
</g>
<path d="M469.052 314.603C468.4 314.603 467.748 314.521 467.096 314.372L466.295 314.182C464.081 313.665 462.193 312.307 460.984 310.379C459.775 308.436 459.408 306.154 459.925 303.94L484.033 200.619C484.142 200.171 484.414 199.777 484.821 199.532C485.215 199.288 485.691 199.206 486.139 199.315L500.142 202.588C501.079 202.805 501.677 203.756 501.446 204.693L477.337 308.015C476.821 310.229 475.463 312.117 473.534 313.326C472.162 314.182 470.614 314.616 469.052 314.616V314.603ZM467.897 310.963C469.201 311.275 470.546 311.044 471.701 310.338C472.842 309.631 473.643 308.518 473.942 307.214L497.657 205.603L487.062 203.131L463.347 304.742C463.035 306.046 463.266 307.404 463.972 308.531C464.678 309.672 465.792 310.474 467.096 310.772L467.897 310.963Z" fill="white"/>
<path d="M499.761 206.052C499.625 206.052 499.489 206.038 499.367 206.011L485.364 202.738C484.807 202.602 484.345 202.208 484.128 201.665C483.924 201.135 483.978 200.524 484.304 200.048L495.605 183.288C496.012 182.69 496.746 182.391 497.452 182.554C498.158 182.717 498.688 183.301 498.797 184.021L501.5 204.055C501.581 204.626 501.364 205.196 500.943 205.59C500.617 205.889 500.196 206.052 499.761 206.052ZM488.637 199.899L497.683 202.018L495.931 189.074L488.623 199.912L488.637 199.899Z" fill="white"/>
<path d="M492.821 190.541C493.568 191.043 494.397 191.423 495.32 191.641C496.244 191.858 497.168 191.885 498.05 191.763L497.032 184.265L492.808 190.541H492.821Z" fill="white"/>
<path d="M497.018 193.583C496.312 193.583 495.619 193.502 494.926 193.339C493.826 193.08 492.794 192.632 491.843 191.98C491.042 191.437 490.824 190.35 491.368 189.549L495.592 183.274C495.999 182.676 496.733 182.377 497.439 182.54C498.145 182.703 498.675 183.288 498.784 184.007L499.802 191.505C499.938 192.469 499.259 193.352 498.308 193.474C497.887 193.529 497.452 193.556 497.031 193.556L497.018 193.583ZM495.402 189.848C495.51 189.875 495.619 189.902 495.728 189.929C495.836 189.957 495.945 189.97 496.053 189.997L495.931 189.074L495.415 189.848H495.402Z" fill="white"/>
<path d="M461.581 329H435.992C413.961 329 396.032 311.071 396.032 289.04V233.312C396.032 232.347 396.82 231.56 397.784 231.56C398.749 231.56 399.536 232.347 399.536 233.312C399.536 235.403 414.681 240.918 448.786 240.918C482.892 240.918 498.036 235.403 498.036 233.312C498.036 232.347 498.824 231.56 499.789 231.56C500.753 231.56 501.541 232.347 501.541 233.312V289.04C501.541 311.071 483.612 329 461.581 329ZM399.536 237.712V289.04C399.536 309.142 415.89 325.496 435.992 325.496H461.581C481.683 325.496 498.036 309.142 498.036 289.04V237.712C488.8 242.914 463.496 244.422 448.786 244.422C434.077 244.422 408.773 242.914 399.536 237.712Z" fill="white"/>
<path d="M518.071 291.01H499.789C498.824 291.01 498.037 290.222 498.037 289.258V280.103C498.037 279.139 498.824 278.351 499.789 278.351H513.86C518.016 278.351 521.398 274.969 521.398 270.813V258.915C521.398 254.758 518.016 251.376 513.86 251.376H499.789C498.824 251.376 498.037 250.589 498.037 249.624V240.456C498.037 239.492 498.824 238.704 499.789 238.704H518.071C526.628 238.704 533.596 245.672 533.596 254.229V275.485C533.596 284.042 526.628 291.01 518.071 291.01ZM501.541 287.506H518.071C524.699 287.506 530.091 282.113 530.091 275.485V254.229C530.091 247.6 524.699 242.208 518.071 242.208H501.541V247.858H513.86C519.945 247.858 524.903 252.816 524.903 258.901V270.799C524.903 276.884 519.945 281.842 513.86 281.842H501.541V287.492V287.506Z" fill="white"/>
</svg>
