<svg width="16" height="16" viewBox="0 0 16 16" fill="none" xmlns="http://www.w3.org/2000/svg">
<path fill-rule="evenodd" clip-rule="evenodd" d="M4.68262 2.49998C4.68262 1.85598 5.20528 1.33331 5.84928 1.33331H13.5C14.144 1.33331 14.6666 1.85598 14.6666 2.49998V10.1653C14.6666 10.4747 14.5437 10.7715 14.3249 10.9903C14.1061 11.2091 13.8094 11.332 13.5 11.332H5.84928C5.53986 11.332 5.24312 11.2091 5.02433 10.9903C4.80553 10.7715 4.68262 10.4747 4.68262 10.1653V2.49998ZM5.84928 2.33331C5.80508 2.33331 5.76269 2.35087 5.73143 2.38213C5.70018 2.41338 5.68262 2.45578 5.68262 2.49998V10.1653C5.68262 10.258 5.75728 10.332 5.84928 10.332H13.5C13.5442 10.332 13.5865 10.3144 13.6178 10.2832C13.6491 10.2519 13.6666 10.2095 13.6666 10.1653V2.49998C13.6666 2.45578 13.6491 2.41338 13.6178 2.38213C13.5865 2.35087 13.5442 2.33331 13.5 2.33331H5.84928Z" fill="#ECF1F9"/>
<path d="M1.33008 7.16599C1.32999 7.01273 1.3601 6.86095 1.41869 6.71932C1.47729 6.5777 1.56321 6.44901 1.67155 6.3406C1.7799 6.2322 1.90854 6.1462 2.05013 6.08753C2.19172 6.02886 2.34348 5.99866 2.49674 5.99866H3.50008C3.63269 5.99866 3.75986 6.05134 3.85363 6.1451C3.9474 6.23887 4.00008 6.36605 4.00008 6.49866C4.00008 6.63127 3.9474 6.75844 3.85363 6.85221C3.75986 6.94598 3.63269 6.99866 3.50008 6.99866H2.49674C2.45254 6.99866 2.41015 7.01622 2.37889 7.04747C2.34764 7.07873 2.33008 7.12112 2.33008 7.16532L2.33341 13.5C2.33341 13.592 2.40741 13.6667 2.50008 13.6667H8.83341C8.87761 13.6667 8.92001 13.6491 8.95126 13.6178C8.98252 13.5866 9.00008 13.5442 9.00008 13.5V12.4933C9.00008 12.3607 9.05276 12.2335 9.14653 12.1398C9.24029 12.046 9.36747 11.9933 9.50008 11.9933C9.63269 11.9933 9.75986 12.046 9.85363 12.1398C9.9474 12.2335 10.0001 12.3607 10.0001 12.4933V13.5C10.0001 13.8094 9.87716 14.1062 9.65837 14.3249C9.43958 14.5437 9.14283 14.6667 8.83341 14.6667H2.50008C2.19066 14.6667 1.89391 14.5437 1.67512 14.3249C1.45633 14.1062 1.33341 13.8094 1.33341 13.5L1.33008 7.16599Z" fill="#ECF1F9"/>
</svg>
