<svg xmlns="http://www.w3.org/2000/svg" width="60" height="60" viewBox="0 0 60 60" fill="none">
  <path d="M41.882 46.0868C34.0504 51.8855 22.95 51.2413 15.8578 44.1435C8.0474 36.3327 8.0474 23.6688 15.8578 15.8581C23.6682 8.04731 36.3265 8.04731 44.1422 15.8581C51.9526 23.6688 51.9526 36.3276 44.1422 44.1383" stroke="#68E0F7" stroke-width="2.24" stroke-linecap="round" stroke-linejoin="round"/>
  <g filter="url(#filter0_f_167_91)">
    <path d="M41.882 46.0868C34.0504 51.8855 22.95 51.2413 15.8578 44.1435C8.0474 36.3327 8.0474 23.6688 15.8578 15.8581C23.6682 8.04731 36.3265 8.04731 44.1422 15.8581C51.9526 23.6688 51.9526 36.3276 44.1422 44.1383" stroke="#68E0F7" stroke-width="2.24" stroke-linecap="round" stroke-linejoin="round"/>
  </g>
  <path d="M41.882 46.0868C34.0504 51.8855 22.95 51.2413 15.8578 44.1435C8.0474 36.3327 8.0474 23.6688 15.8578 15.8581C23.6682 8.04731 36.3265 8.04731 44.1422 15.8581C51.9526 23.6688 51.9526 36.3276 44.1422 44.1383" stroke="#CDF9FD" stroke-width="0.88" stroke-linecap="round" stroke-linejoin="round"/>
  <path d="M40.3979 23.41C39.7325 23.711 38.7661 23.8955 38.0426 24.017C38.3859 23.9589 38.7714 23.341 38.9721 23.0928C39.2784 22.7125 39.4737 22.2797 39.6163 21.8096C39.6374 21.7727 39.6164 21.7252 39.5847 21.6988C39.5372 21.6829 39.495 21.6885 39.458 21.7096C38.6553 22.1374 37.8209 22.4539 36.9337 22.6704C36.8598 22.6862 36.8017 22.6705 36.7541 22.623C36.6802 22.5437 36.6116 22.4646 36.5324 22.4012C36.1627 22.0843 35.7613 21.836 35.3125 21.6565C34.721 21.4188 34.0767 21.313 33.443 21.3553C32.8252 21.3975 32.2179 21.5719 31.6687 21.8571C31.1195 22.1423 30.6283 22.5436 30.2375 23.0242C29.8361 23.5206 29.5352 24.1122 29.3821 24.7354C29.2342 25.3374 29.2447 25.9342 29.3345 26.5415C29.3503 26.6418 29.3345 26.6579 29.25 26.6421C25.7963 26.1298 22.934 24.894 20.6052 22.2429C20.5048 22.1267 20.4521 22.1264 20.3676 22.2532C19.3484 23.7794 19.8448 26.2301 21.1123 27.4342C21.2812 27.5927 21.4555 27.7562 21.6456 27.9041C21.577 27.9199 20.732 27.825 19.9768 27.4342C19.8765 27.3709 19.8236 27.4078 19.8183 27.524C19.8078 27.6877 19.8184 27.8406 19.8448 28.0201C20.0402 29.5675 21.1121 30.9989 22.5749 31.5534C22.7492 31.6273 22.9393 31.6909 23.1295 31.7226C22.7968 31.7965 22.4483 31.8492 21.4925 31.77C21.3763 31.7489 21.3288 31.807 21.3763 31.9232C22.0945 33.8825 23.6471 34.4688 24.8142 34.8015C24.9673 34.8279 25.1257 34.8274 25.2788 34.8644C25.2682 34.8803 25.2629 34.8807 25.2524 34.8912C24.8669 35.4774 23.5256 35.9156 22.9024 36.1321C21.767 36.5282 20.5366 36.7079 19.3378 36.5865C19.1477 36.56 19.1054 36.56 19.0526 36.5865C18.9998 36.6181 19.0474 36.6653 19.1055 36.7128C19.3484 36.8765 19.5966 37.0139 19.8501 37.1512C20.6105 37.5525 21.4026 37.875 22.2317 38.1074C26.5145 39.2903 31.336 38.419 34.5573 35.2239C37.0816 32.7154 37.9688 29.256 37.9688 25.7916C37.9688 25.6543 38.1272 25.5802 38.2222 25.5116C38.8771 25.0204 39.8699 24.4291 40.361 23.7689C40.4719 23.621 40.9313 23.4891 40.9313 23.4363V23.4203C40.9313 23.3622 40.4719 23.3833 40.3874 23.4203L40.3979 23.41Z" stroke="#68E0F7" stroke-width="3" stroke-linecap="round" stroke-linejoin="round"/>
  <g filter="url(#filter1_f_167_91)">
    <path d="M40.3979 23.4097C39.7325 23.7107 38.7661 23.8953 38.0426 24.0167C38.3859 23.9586 38.7714 23.3408 38.9721 23.0925C39.2784 22.7123 39.4737 22.2794 39.6163 21.8094C39.6374 21.7724 39.6164 21.7249 39.5847 21.6985C39.5372 21.6827 39.495 21.6882 39.458 21.7093C38.6553 22.1371 37.8209 22.4536 36.9337 22.6702C36.8598 22.686 36.8017 22.6702 36.7541 22.6227C36.6802 22.5435 36.6116 22.4643 36.5324 22.4009C36.1627 22.0841 35.7613 21.8358 35.3125 21.6562C34.721 21.4186 34.0767 21.3128 33.443 21.355C32.8252 21.3973 32.2179 21.5717 31.6687 21.8568C31.1195 22.142 30.6283 22.5434 30.2375 23.024C29.8361 23.5204 29.5352 24.112 29.3821 24.7352C29.2342 25.3372 29.2447 25.9339 29.3345 26.5413C29.3503 26.6416 29.3345 26.6577 29.25 26.6418C25.7963 26.1296 22.934 24.8937 20.6052 22.2426C20.5048 22.1264 20.4521 22.1262 20.3676 22.2529C19.3484 23.7792 19.8448 26.2299 21.1123 27.434C21.2812 27.5924 21.4555 27.756 21.6456 27.9038C21.577 27.9197 20.732 27.8248 19.9768 27.434C19.8765 27.3706 19.8236 27.4075 19.8183 27.5237C19.8078 27.6874 19.8184 27.8403 19.8448 28.0199C20.0402 29.5672 21.1121 30.9986 22.5749 31.5532C22.7492 31.6271 22.9393 31.6906 23.1295 31.7223C22.7968 31.7963 22.4483 31.849 21.4925 31.7698C21.3763 31.7486 21.3288 31.8068 21.3763 31.9229C22.0945 33.8822 23.6471 34.4685 24.8142 34.8013C24.9673 34.8277 25.1257 34.8272 25.2788 34.8642C25.2682 34.88 25.2629 34.8804 25.2524 34.891C24.8669 35.4772 23.5256 35.9153 22.9024 36.1318C21.767 36.5279 20.5366 36.7077 19.3378 36.5862C19.1477 36.5598 19.1054 36.5598 19.0526 36.5862C18.9998 36.6179 19.0474 36.665 19.1055 36.7126C19.3484 36.8763 19.5966 37.0136 19.8501 37.1509C20.6105 37.5523 21.4026 37.8747 22.2317 38.1071C26.5145 39.2901 31.336 38.4187 34.5573 35.2236C37.0816 32.7151 37.9688 29.2558 37.9688 25.7914C37.9688 25.6541 38.1272 25.58 38.2222 25.5113C38.8771 25.0202 39.8699 24.4288 40.361 23.7687C40.4719 23.6208 40.9313 23.4888 40.9313 23.436V23.42C40.9313 23.3619 40.4719 23.3831 40.3874 23.42L40.3979 23.4097Z" stroke="#68E0F7" stroke-width="3" stroke-linecap="round" stroke-linejoin="round"/>
  </g>
  <path d="M40.3979 23.41C39.7325 23.711 38.7661 23.8955 38.0426 24.017C38.3859 23.9589 38.7714 23.341 38.9721 23.0928C39.2784 22.7125 39.4737 22.2797 39.6163 21.8096C39.6374 21.7727 39.6164 21.7252 39.5847 21.6988C39.5372 21.6829 39.495 21.6885 39.458 21.7096C38.6553 22.1374 37.8209 22.4539 36.9337 22.6704C36.8598 22.6862 36.8017 22.6705 36.7541 22.623C36.6802 22.5437 36.6116 22.4646 36.5324 22.4012C36.1627 22.0843 35.7613 21.836 35.3125 21.6565C34.721 21.4188 34.0767 21.313 33.443 21.3553C32.8252 21.3975 32.2179 21.5719 31.6687 21.8571C31.1195 22.1423 30.6283 22.5436 30.2375 23.0242C29.8361 23.5206 29.5352 24.1122 29.3821 24.7354C29.2342 25.3374 29.2447 25.9342 29.3345 26.5415C29.3503 26.6418 29.3345 26.6579 29.25 26.6421C25.7963 26.1298 22.934 24.894 20.6052 22.2429C20.5048 22.1267 20.4521 22.1264 20.3676 22.2532C19.3484 23.7794 19.8448 26.2301 21.1123 27.4342C21.2812 27.5927 21.4555 27.7562 21.6456 27.9041C21.577 27.9199 20.732 27.825 19.9768 27.4342C19.8765 27.3709 19.8236 27.4078 19.8183 27.524C19.8078 27.6877 19.8184 27.8406 19.8448 28.0201C20.0402 29.5675 21.1121 30.9989 22.5749 31.5534C22.7492 31.6273 22.9393 31.6909 23.1295 31.7226C22.7968 31.7965 22.4483 31.8492 21.4925 31.77C21.3763 31.7489 21.3288 31.807 21.3763 31.9232C22.0945 33.8825 23.6471 34.4688 24.8142 34.8015C24.9673 34.8279 25.1257 34.8274 25.2788 34.8644C25.2682 34.8803 25.2629 34.8807 25.2524 34.8912C24.8669 35.4774 23.5256 35.9156 22.9024 36.1321C21.767 36.5282 20.5366 36.7079 19.3378 36.5865C19.1477 36.56 19.1054 36.56 19.0526 36.5865C18.9998 36.6181 19.0474 36.6653 19.1055 36.7128C19.3484 36.8765 19.5966 37.0139 19.8501 37.1512C20.6105 37.5525 21.4026 37.875 22.2317 38.1074C26.5145 39.2903 31.336 38.419 34.5573 35.2239C37.0816 32.7154 37.9688 29.256 37.9688 25.7916C37.9688 25.6543 38.1272 25.5802 38.2222 25.5116C38.8771 25.0204 39.8699 24.4291 40.361 23.7689C40.4719 23.621 40.9313 23.4891 40.9313 23.4363V23.4203C40.9313 23.3622 40.4719 23.3833 40.3874 23.4203L40.3979 23.41Z" stroke="#CDF9FD" stroke-width="0.88" stroke-linecap="round" stroke-linejoin="round"/>
  <defs>
    <filter id="filter0_f_167_91" x="0.879883" y="0.879883" width="58.2402" height="58.24" filterUnits="userSpaceOnUse" color-interpolation-filters="sRGB">
      <feFlood flood-opacity="0" result="BackgroundImageFix"/>
      <feBlend mode="normal" in="SourceGraphic" in2="BackgroundImageFix" result="shape"/>
      <feGaussianBlur stdDeviation="4" result="effect1_foregroundBlur_167_91"/>
    </filter>
    <filter id="filter1_f_167_91" x="9.5293" y="11.8459" width="40.9019" height="36.2649" filterUnits="userSpaceOnUse" color-interpolation-filters="sRGB">
      <feFlood flood-opacity="0" result="BackgroundImageFix"/>
      <feBlend mode="normal" in="SourceGraphic" in2="BackgroundImageFix" result="shape"/>
      <feGaussianBlur stdDeviation="4" result="effect1_foregroundBlur_167_91"/>
    </filter>
  </defs>
</svg>