
<svg width="60" height="60" viewBox="0 0 60 60" fill="none" xmlns="http://www.w3.org/2000/svg">
<g filter="url(#filter0_f_176_1101)">
<path d="M41.882 46.0868C34.0504 51.8855 22.95 51.2413 15.8578 44.1435C8.0474 36.3327 8.0474 23.6688 15.8578 15.8581C23.6682 8.04731 36.3265 8.04731 44.1422 15.8581C51.9526 23.6688 51.9526 36.3276 44.1422 44.1383" stroke="#941BCC" stroke-width="2.24" stroke-linecap="round" stroke-linejoin="round"/>
<path d="M26.6094 19.7136C26.6094 19.7136 22.9815 19.9618 20.6104 21.8683C20.5998 21.8683 20.5839 21.8785 20.5734 21.8838C20.1614 22.264 19.85 22.8557 19.4697 23.7007C19.0895 24.5457 18.6828 25.6334 18.3131 26.8534C17.5791 29.288 16.9771 32.2826 16.9771 35.0974C16.9771 35.1977 16.9982 35.2981 17.0458 35.3826C17.8801 36.8455 19.4116 37.7274 20.8374 38.2872C22.2685 38.8417 23.5834 39.0633 24.2541 39.0897C24.4442 39.095 24.6239 39.0108 24.7348 38.8576L26.1236 36.935C27.2431 37.199 28.558 37.379 30.0736 37.379C31.5893 37.379 32.9042 37.199 34.0237 36.935L35.4127 38.8576C35.5236 39.0108 35.7031 39.095 35.8932 39.0897C36.5638 39.0686 37.884 38.847 39.3099 38.2872C40.741 37.7327 42.2673 36.8455 43.1016 35.3826C43.1492 35.2981 43.1755 35.1977 43.1702 35.0974C43.1702 32.2826 42.5735 29.2933 41.8342 26.8534C41.4645 25.6334 41.0579 24.5457 40.6777 23.7007C40.2975 22.8557 39.9858 22.264 39.5739 21.8838C39.5634 21.8785 39.5476 21.8683 39.5371 21.8683C37.1659 19.9618 33.5379 19.7136 33.5379 19.7136C33.4957 19.7136 33.4534 19.7136 33.4112 19.7136C33.2105 19.74 33.0468 19.8665 32.9675 20.0514C32.9675 20.0514 32.7722 20.4738 32.6455 21.0864C31.5365 20.9069 30.6017 20.8544 30.0631 20.8544C29.5244 20.8544 28.5898 20.9069 27.4808 21.0864C27.354 20.4791 27.1586 20.0514 27.1586 20.0514C27.0583 19.8296 26.8313 19.6924 26.5883 19.7136H26.6094ZM26.2556 20.9441C26.2978 21.0603 26.3242 21.1712 26.3612 21.2979C25.0779 21.5936 23.6733 22.0849 22.3531 22.8982C22.1471 22.9827 22.0097 23.1833 22.0045 23.4103C22.0045 23.6322 22.126 23.8381 22.3266 23.9385C22.5273 24.0335 22.7702 24.0069 22.9392 23.859C25.5796 22.2219 28.9383 21.9895 30.0789 21.9895C31.2196 21.9895 34.5782 22.2219 37.2187 23.859C37.3877 24.0016 37.6305 24.0335 37.8312 23.9385C38.0319 23.8381 38.1587 23.6322 38.1534 23.4103C38.1481 23.1833 38.0109 22.988 37.8049 22.8982C36.49 22.0796 35.0852 21.5936 33.7967 21.2979C33.8336 21.1659 33.86 21.055 33.9023 20.9441C34.5518 21.0233 37.0761 21.3667 38.7977 22.7239C38.9086 22.8242 39.2941 23.3945 39.6532 24.1814C40.007 24.9683 40.3819 25.9929 40.741 27.1706C41.4328 29.4678 41.9979 32.2985 42.0243 34.8968C41.3748 35.9424 40.1601 36.724 38.9085 37.2098C37.7679 37.6535 36.7064 37.8486 36.1466 37.9014L35.1855 36.6023C35.6766 36.4439 36.115 36.2752 36.5005 36.1062C37.9369 35.4724 38.7079 34.807 38.7079 34.807C38.9456 34.5958 38.9613 34.2312 38.7501 33.9989C38.5388 33.7665 38.1746 33.7453 37.9422 33.9566C37.9422 33.9566 37.3454 34.5006 36.0358 35.0762C35.5552 35.2875 34.9743 35.4989 34.3089 35.6838C34.1558 35.6679 34.0026 35.7098 33.8811 35.8101C32.8197 36.0689 31.5576 36.2382 30.0736 36.2382C28.5897 36.2382 27.3117 36.0534 26.245 35.7947C26.1235 35.7154 25.9757 35.6838 25.8331 35.7049C25.1677 35.5201 24.5868 35.2927 24.1062 35.0814C22.7966 34.5058 22.1999 33.9617 22.1999 33.9617C22.0732 33.8403 21.8935 33.793 21.7193 33.8194C21.4975 33.8511 21.318 34.0093 21.2546 34.2258C21.1912 34.437 21.2652 34.6695 21.4342 34.8173C21.4342 34.8173 22.2052 35.4827 23.6416 36.1165C24.0271 36.2855 24.4707 36.4547 24.9565 36.6131L23.9954 37.9123C23.4409 37.8595 22.3741 37.6585 21.2335 37.2202C19.9819 36.7343 18.7673 35.9527 18.1178 34.9071C18.1442 32.3088 18.7039 29.4782 19.401 27.1809C19.7548 26.0032 20.1298 24.9786 20.4889 24.1917C20.8427 23.4048 21.2334 22.8346 21.3443 22.7342C23.0659 21.377 25.5902 21.0336 26.2397 20.9544L26.2556 20.9441ZM26.3823 27.693C24.9301 27.693 23.8212 29.0136 23.8212 30.5399C23.8212 32.0661 24.9301 33.3862 26.3823 33.3862C27.8346 33.3862 28.9436 32.0661 28.9436 30.5399C28.9436 29.0136 27.8346 27.693 26.3823 27.693ZM33.7861 27.693C32.3339 27.693 31.2248 29.0136 31.2248 30.5399C31.2248 32.0661 32.3339 33.3862 33.7861 33.3862C35.2383 33.3862 36.3474 32.0661 36.3474 30.5399C36.3474 29.0136 35.2383 27.693 33.7861 27.693ZM26.3823 28.8338C27.1322 28.8338 27.8081 29.5574 27.8081 30.545C27.8081 31.5326 27.1322 32.2562 26.3823 32.2562C25.6324 32.2562 24.9565 31.5326 24.9565 30.545C24.9565 29.5574 25.6324 28.8338 26.3823 28.8338ZM33.7861 28.8338C34.536 28.8338 35.2119 29.5574 35.2119 30.545C35.2119 31.5326 34.536 32.2562 33.7861 32.2562C33.0362 32.2562 32.3603 31.5326 32.3603 30.545C32.3603 29.5574 33.0362 28.8338 33.7861 28.8338Z" fill="#941BCC"/>
</g>
<path d="M41.882 46.0868C34.0504 51.8855 22.95 51.2413 15.8578 44.1435C8.0474 36.3327 8.0474 23.6688 15.8578 15.8581C23.6682 8.04731 36.3265 8.04731 44.1422 15.8581C51.9526 23.6688 51.9526 36.3276 44.1422 44.1383" stroke="#941BCC" stroke-width="2.64" stroke-linecap="round" stroke-linejoin="round"/>
<path d="M41.882 46.0868C34.0504 51.8855 22.95 51.2413 15.8578 44.1435C8.0474 36.3327 8.0474 23.6688 15.8578 15.8581C23.6682 8.04731 36.3265 8.04731 44.1422 15.8581C51.9526 23.6688 51.9526 36.3276 44.1422 44.1383" stroke="#EED0FC" stroke-width="0.88" stroke-linecap="round" stroke-linejoin="round"/>
<path d="M26.2956 19.158C26.2956 19.158 22.4598 19.4205 19.9528 21.4362C19.9417 21.4362 19.9249 21.447 19.9137 21.4526C19.4782 21.8546 19.1489 22.4802 18.7468 23.3736C18.3448 24.267 17.9148 25.4171 17.524 26.707C16.7479 29.2811 16.1113 32.4472 16.1113 35.4233C16.1113 35.5294 16.1337 35.6356 16.184 35.7249C17.0662 37.2716 18.6853 38.2041 20.1929 38.7959C21.706 39.3822 23.0963 39.6165 23.8054 39.6444C24.0064 39.65 24.1963 39.561 24.3135 39.399L25.7819 37.3662C26.9656 37.6454 28.3559 37.8357 29.9584 37.8357C31.5608 37.8357 32.9511 37.6454 34.1348 37.3662L35.6033 39.399C35.7206 39.561 35.9103 39.65 36.1114 39.6444C36.8205 39.6221 38.2163 39.3878 39.7238 38.7959C41.237 38.2097 42.8507 37.2716 43.7329 35.7249C43.7831 35.6356 43.811 35.5294 43.8054 35.4233C43.8054 32.4472 43.1744 29.2866 42.3928 26.707C42.0019 25.4171 41.572 24.267 41.17 23.3736C40.768 22.4802 40.4385 21.8546 40.003 21.4526C39.9918 21.447 39.9752 21.4362 39.964 21.4362C37.457 19.4205 33.6211 19.158 33.6211 19.158C33.5765 19.158 33.5318 19.158 33.4871 19.158C33.275 19.1859 33.1018 19.3198 33.0181 19.5152C33.0181 19.5152 32.8116 19.9619 32.6776 20.6096C31.505 20.4197 30.5167 20.3642 29.9472 20.3642C29.3777 20.3642 28.3895 20.4197 27.2169 20.6096C27.0829 19.9674 26.8763 19.5152 26.8763 19.5152C26.7702 19.2807 26.5302 19.1357 26.2733 19.158H26.2956ZM25.9215 20.4591C25.9662 20.5819 25.9941 20.6991 26.0332 20.8331C24.6764 21.1458 23.1913 21.6653 21.7954 22.5252C21.5776 22.6145 21.4324 22.8265 21.4268 23.0666C21.4268 23.3011 21.5553 23.5189 21.7675 23.625C21.9796 23.7255 22.2364 23.6974 22.4151 23.541C25.2068 21.8101 28.7579 21.5644 29.9639 21.5644C31.17 21.5644 34.7211 21.8101 37.5128 23.541C37.6915 23.6918 37.9483 23.7255 38.1604 23.625C38.3726 23.5189 38.5067 23.3011 38.5011 23.0666C38.4955 22.8265 38.3504 22.6201 38.1326 22.5252C36.7423 21.6597 35.2571 21.1458 33.8947 20.8331C33.9338 20.6935 33.9617 20.5763 34.0064 20.4591C34.6931 20.5428 37.362 20.9058 39.1823 22.3409C39.2995 22.4469 39.7072 23.0499 40.0868 23.8818C40.4609 24.7138 40.8573 25.7971 41.2369 27.0423C41.9684 29.4712 42.5659 32.464 42.5938 35.2112C41.9071 36.3168 40.6228 37.1431 39.2995 37.6568C38.0935 38.1259 36.9712 38.3322 36.3793 38.3881L35.3631 37.0145C35.8824 36.847 36.3459 36.6686 36.7535 36.4899C38.2722 35.8199 39.0874 35.1164 39.0874 35.1164C39.3386 34.893 39.3553 34.5076 39.132 34.2619C38.9086 34.0162 38.5235 33.9938 38.2778 34.2172C38.2778 34.2172 37.6468 34.7924 36.2621 35.401C35.754 35.6243 35.1398 35.8479 34.4363 36.0433C34.2744 36.0266 34.1124 36.0708 33.984 36.1769C32.8617 36.4505 31.5273 36.6295 29.9584 36.6295C28.3894 36.6295 27.0382 36.4342 25.9103 36.1606C25.7819 36.0768 25.6256 36.0434 25.4748 36.0657C24.7713 35.8703 24.1571 35.6298 23.649 35.4064C22.2643 34.7978 21.6335 34.2226 21.6335 34.2226C21.4995 34.0942 21.3095 34.0442 21.1253 34.0721C20.8908 34.1056 20.701 34.2729 20.634 34.5018C20.567 34.7252 20.6452 34.9709 20.8239 35.1273C20.8239 35.1273 21.639 35.8308 23.1577 36.5008C23.5653 36.6795 24.0343 36.8584 24.548 37.0259L23.5318 38.3995C22.9455 38.3437 21.8177 38.1312 20.6116 37.6677C19.2884 37.154 18.0042 36.3277 17.3174 35.2221C17.3454 32.4749 17.9372 29.4821 18.6742 27.0532C19.0483 25.808 19.4447 24.7247 19.8244 23.8927C20.1985 23.0608 20.6116 22.4579 20.7289 22.3518C22.5491 20.9167 25.218 20.5537 25.9048 20.47L25.9215 20.4591ZM26.0555 27.5947C24.5201 27.5947 23.3476 28.991 23.3476 30.6047C23.3476 32.2184 24.5201 33.6141 26.0555 33.6141C27.591 33.6141 28.7636 32.2184 28.7636 30.6047C28.7636 28.991 27.591 27.5947 26.0555 27.5947ZM33.8836 27.5947C32.3481 27.5947 31.1755 28.991 31.1755 30.6047C31.1755 32.2184 32.3481 33.6141 33.8836 33.6141C35.419 33.6141 36.5916 32.2184 36.5916 30.6047C36.5916 28.991 35.419 27.5947 33.8836 27.5947ZM26.0555 28.8009C26.8484 28.8009 27.563 29.566 27.563 30.6101C27.563 31.6543 26.8484 32.4194 26.0555 32.4194C25.2627 32.4194 24.548 31.6543 24.548 30.6101C24.548 29.566 25.2627 28.8009 26.0555 28.8009ZM33.8836 28.8009C34.6764 28.8009 35.3911 29.566 35.3911 30.6101C35.3911 31.6543 34.6764 32.4194 33.8836 32.4194C33.0907 32.4194 32.376 31.6543 32.376 30.6101C32.376 29.566 33.0907 28.8009 33.8836 28.8009Z" fill="#941BCC"/>
<path d="M35.8828 38.7414C35.8089 38.7414 35.7403 38.7092 35.7033 38.6511L34.1824 36.5444L33.9606 36.597C32.7407 36.8874 31.4363 37.0353 30.0897 37.0353C28.7431 37.0353 27.4386 36.8874 26.2188 36.597L25.997 36.5444L24.4762 38.6511C24.4339 38.7039 24.3652 38.7414 24.2966 38.7414C23.5731 38.715 22.2793 38.4664 20.9802 37.9647C19.2322 37.2834 18.0123 36.3592 17.3627 35.2132C17.3469 35.1816 17.3364 35.1445 17.3364 35.1075C17.3364 32.6676 17.8064 29.7738 18.6566 26.9589C19.0105 25.7918 19.4065 24.7146 19.7973 23.8485C20.1564 23.0511 20.4416 22.5124 20.7849 22.1745L20.8164 22.1636L20.8376 22.1425C23.0978 20.3258 26.6096 20.0673 26.6465 20.062C26.7574 20.062 26.8366 20.1148 26.8736 20.194C26.8736 20.2046 27.0585 20.6007 27.1746 21.1605L27.2433 21.4823L27.5707 21.4297C28.8856 21.2185 29.8362 21.2028 30.095 21.2028C30.3537 21.2028 31.3096 21.2185 32.6192 21.4297L32.9466 21.4823L33.0153 21.1605C33.1315 20.6007 33.3111 20.2045 33.3111 20.1992C33.348 20.12 33.4113 20.0726 33.4905 20.062H33.5434C33.5804 20.062 37.0921 20.3311 39.3524 22.1425L39.3946 22.1796H39.4104C39.7536 22.5229 40.0336 23.0562 40.3927 23.8537C40.7835 24.7198 41.1795 25.797 41.5333 26.9641C42.3835 29.7789 42.8535 32.6729 42.8535 35.1075C42.8535 35.155 42.8431 35.1924 42.8272 35.2241C42.1777 36.3701 40.9577 37.2943 39.2098 37.9755C37.9159 38.4772 36.6168 38.7306 35.9039 38.7517H35.8934L35.8828 38.7414ZM38.3332 34.157C38.4018 34.157 38.4598 34.1838 38.5021 34.2313C38.5443 34.2788 38.5655 34.3367 38.5602 34.3948C38.5549 34.4529 38.5285 34.5109 38.4862 34.5531C38.4862 34.5531 37.7365 35.1924 36.3687 35.7945C35.9515 35.974 35.5237 36.1377 35.0854 36.2803L34.626 36.4278L35.9884 38.271L36.1838 38.2499C36.8334 38.1865 37.9212 37.965 39.0354 37.532C40.5352 36.9458 41.7023 36.0742 42.3201 35.0761L42.373 34.9915V34.8914C42.3413 31.7069 41.5439 28.6225 41.0739 27.0698C40.7201 25.8921 40.3346 24.8411 39.9702 24.0383C39.6111 23.2462 39.1939 22.618 39.0354 22.4648C37.4142 21.1815 35.1541 20.7432 33.95 20.5953L33.6807 20.5633L33.5857 20.8222C33.5434 20.9384 33.5116 21.0441 33.48 21.1708L33.3849 21.5143L33.723 21.6304C35.1964 21.9736 36.5112 22.4966 37.6255 23.1884L37.6466 23.2039L37.6731 23.2147C37.7523 23.2464 37.8104 23.3308 37.8104 23.4153C37.8104 23.4998 37.7629 23.5841 37.6836 23.6211C37.6572 23.6317 37.6202 23.6422 37.5885 23.6422C37.5357 23.6422 37.4829 23.6213 37.4459 23.5896L37.4249 23.5736L37.4037 23.5633C34.3884 21.6938 30.5121 21.6407 30.0844 21.6407C29.6566 21.6407 25.7753 21.6938 22.7652 23.5633L22.744 23.5736L22.7229 23.5896C22.6859 23.6213 22.6331 23.6422 22.5803 23.6422C22.5486 23.6422 22.5117 23.6317 22.48 23.6211C22.4061 23.5841 22.3533 23.4999 22.3533 23.4102C22.3533 23.3257 22.4113 23.2465 22.4906 23.2095L22.5169 23.1987L22.538 23.1832C23.6523 22.4914 24.9673 21.9685 26.4406 21.6252L26.7891 21.5458L26.6941 21.2028C26.6519 21.0444 26.6202 20.9332 26.578 20.817L26.4828 20.5581L26.2135 20.5901C25.0094 20.738 22.7493 21.1762 21.1439 22.4437C20.938 22.6285 20.5313 23.278 20.188 24.0332C19.8237 24.8412 19.4434 25.8922 19.0843 27.0646C18.6143 28.6173 17.8222 31.7012 17.7852 34.8858V34.9863L17.8381 35.0709C18.4559 36.069 19.623 36.9401 21.1228 37.5263C22.237 37.9594 23.3248 38.1814 23.9744 38.2447L24.1698 38.2659L25.5324 36.4226L25.0729 36.2746C24.6345 36.132 24.2015 35.9684 23.7896 35.7888C22.4272 35.1868 21.6773 34.5481 21.672 34.5428C21.6034 34.4847 21.5769 34.3947 21.598 34.3102C21.6244 34.2257 21.6931 34.1625 21.7829 34.1467H21.8252C21.8833 34.1467 21.9361 34.1623 21.9783 34.1993C22.0047 34.2257 22.6331 34.7909 23.9797 35.3824C24.5975 35.6517 25.1785 35.863 25.7541 36.0214L25.828 36.0425L25.902 36.0317H25.9231C25.9865 36.0317 26.0288 36.0477 26.0657 36.0688L26.1185 36.1008L26.1766 36.1163C27.4282 36.4226 28.7114 36.5707 30.0844 36.5707C31.4574 36.5707 32.783 36.4227 33.9765 36.1323L34.0503 36.1111L34.1085 36.0637C34.1507 36.032 34.1983 36.0106 34.2511 36.0106H34.3197L34.4094 36.0003C35.0589 35.8207 35.6557 35.6096 36.1838 35.3772C37.5305 34.7858 38.1589 34.2153 38.1853 34.1942C38.2381 34.1466 38.2962 34.1359 38.3332 34.1359V34.157ZM33.7863 33.043C32.5611 33.043 31.5684 31.918 31.5684 30.5397C31.5684 29.1613 32.5664 28.0363 33.7863 28.0363C35.0062 28.0363 36.0042 29.1613 36.0042 30.5397C36.0042 31.918 35.0062 33.043 33.7863 33.043ZM33.7863 28.485C32.8093 28.485 32.0171 29.4042 32.0171 30.5397C32.0171 31.6751 32.8093 32.5938 33.7863 32.5938C34.7633 32.5938 35.5554 31.6751 35.5554 30.5397C35.5554 29.4042 34.7633 28.485 33.7863 28.485ZM26.3825 33.043C25.1573 33.043 24.1646 31.918 24.1646 30.5397C24.1646 29.1613 25.1626 28.0363 26.3825 28.0363C27.6024 28.0363 28.6004 29.1613 28.6004 30.5397C28.6004 31.918 27.6024 33.043 26.3825 33.043ZM26.3825 28.485C25.4055 28.485 24.6135 29.4042 24.6135 30.5397C24.6135 31.6751 25.4055 32.5938 26.3825 32.5938C27.3595 32.5938 28.1516 31.6751 28.1516 30.5397C28.1516 29.4042 27.3595 28.485 26.3825 28.485Z" fill="#F0D0FC"/>
<defs>
<filter id="filter0_f_176_1101" x="0.879883" y="0.879883" width="58.2402" height="58.24" filterUnits="userSpaceOnUse" color-interpolation-filters="sRGB">
<feFlood flood-opacity="0" result="BackgroundImageFix"/>
<feBlend mode="normal" in="SourceGraphic" in2="BackgroundImageFix" result="shape"/>
<feGaussianBlur stdDeviation="4" result="effect1_foregroundBlur_176_1101"/>
</filter>
</defs>
</svg>
