<svg xmlns="http://www.w3.org/2000/svg" width="60" height="60" viewBox="0 0 60 60" fill="none">
  <g filter="url(#filter0_f_167_84)">
    <path fill-rule="evenodd" clip-rule="evenodd" d="M26.7048 30.1011V42.3534C26.7048 42.5277 26.8474 42.67 27.0217 42.67H31.5684C31.748 42.67 31.8906 42.5277 31.8906 42.3534V29.9056H35.1912C35.3549 29.9056 35.4975 29.779 35.5081 29.6153L35.8248 25.8654C35.8407 25.6805 35.6929 25.5172 35.5081 25.5172H31.8959V22.8555C31.8959 22.2271 32.4028 21.725 33.026 21.725H35.5661C35.7456 21.725 35.8883 21.5827 35.8883 21.4084V17.6585C35.8883 17.4842 35.7456 17.3367 35.5661 17.3367H31.2728C28.7538 17.3367 26.71 19.3803 26.71 21.8994V25.5172H24.434C24.2544 25.5172 24.1172 25.6596 24.1172 25.8339V29.5833C24.1172 29.7576 24.2597 29.9005 24.434 29.9005H26.71V30.1011H26.7048Z" stroke="#4867D6" stroke-width="3" stroke-linecap="round" stroke-linejoin="round"/>
  </g>
  <g filter="url(#filter1_f_167_84)">
    <path d="M41.882 46.0868C34.0504 51.8855 22.95 51.2413 15.8578 44.1435C8.0474 36.3327 8.0474 23.6688 15.8578 15.8581C23.6682 8.04731 36.3265 8.04731 44.1422 15.8581C51.9526 23.6688 51.9526 36.3276 44.1422 44.1383" stroke="#4867D6" stroke-width="2.24" stroke-linecap="round" stroke-linejoin="round"/>
  </g>
  <path fill-rule="evenodd" clip-rule="evenodd" d="M26.7048 30.1013V42.3536C26.7048 42.5279 26.8474 42.6703 27.0217 42.6703H31.5684C31.748 42.6703 31.8906 42.5279 31.8906 42.3536V29.9059H35.1912C35.3549 29.9059 35.4975 29.7792 35.5081 29.6155L35.8248 25.8656C35.8407 25.6808 35.6929 25.5175 35.5081 25.5175H31.8959V22.8558C31.8959 22.2273 32.4028 21.7253 33.026 21.7253H35.5661C35.7456 21.7253 35.8883 21.5829 35.8883 21.4086V17.6587C35.8883 17.4845 35.7456 17.3369 35.5661 17.3369H31.2728C28.7538 17.3369 26.71 19.3805 26.71 21.8996V25.5175H24.434C24.2544 25.5175 24.1172 25.6599 24.1172 25.8341V29.5835C24.1172 29.7578 24.2597 29.9007 24.434 29.9007H26.71V30.1013H26.7048Z" stroke="#4867D6" stroke-width="3" stroke-linecap="round" stroke-linejoin="round"/>
  <path d="M41.882 46.0868C34.0504 51.8855 22.95 51.2413 15.8578 44.1435C8.0474 36.3327 8.0474 23.6688 15.8578 15.8581C23.6682 8.04731 36.3265 8.04731 44.1422 15.8581C51.9526 23.6688 51.9526 36.3276 44.1422 44.1383" stroke="#4867D6" stroke-width="2.24" stroke-linecap="round" stroke-linejoin="round"/>
  <path fill-rule="evenodd" clip-rule="evenodd" d="M26.7048 30.1013V42.3536C26.7048 42.5279 26.8474 42.6703 27.0217 42.6703H31.5684C31.748 42.6703 31.8906 42.5279 31.8906 42.3536V29.9059H35.1912C35.3549 29.9059 35.4975 29.7792 35.5081 29.6155L35.8248 25.8656C35.8407 25.6808 35.6929 25.5175 35.5081 25.5175H31.8959V22.8558C31.8959 22.2273 32.4028 21.7253 33.026 21.7253H35.5661C35.7456 21.7253 35.8883 21.5829 35.8883 21.4086V17.6587C35.8883 17.4845 35.7456 17.3369 35.5661 17.3369H31.2728C28.7538 17.3369 26.71 19.3805 26.71 21.8996V25.5175H24.434C24.2544 25.5175 24.1172 25.6599 24.1172 25.8341V29.5835C24.1172 29.7578 24.2597 29.9007 24.434 29.9007H26.71V30.1013H26.7048Z" stroke="#84FFFF" stroke-width="0.88" stroke-linecap="round" stroke-linejoin="round"/>
  <path d="M41.882 46.0868C34.0504 51.8855 22.95 51.2413 15.8578 44.1435C8.0474 36.3327 8.0474 23.6688 15.8578 15.8581C23.6682 8.04731 36.3265 8.04731 44.1422 15.8581C51.9526 23.6688 51.9526 36.3276 44.1422 44.1383" stroke="#84FFFF" stroke-width="0.88" stroke-linecap="round" stroke-linejoin="round"/>
  <defs>
    <filter id="filter0_f_167_84" x="14.6172" y="7.83667" width="30.771" height="44.3333" filterUnits="userSpaceOnUse" color-interpolation-filters="sRGB">
      <feFlood flood-opacity="0" result="BackgroundImageFix"/>
      <feBlend mode="normal" in="SourceGraphic" in2="BackgroundImageFix" result="shape"/>
      <feGaussianBlur stdDeviation="4" result="effect1_foregroundBlur_167_84"/>
    </filter>
    <filter id="filter1_f_167_84" x="0.879883" y="0.879883" width="58.2402" height="58.24" filterUnits="userSpaceOnUse" color-interpolation-filters="sRGB">
      <feFlood flood-opacity="0" result="BackgroundImageFix"/>
      <feBlend mode="normal" in="SourceGraphic" in2="BackgroundImageFix" result="shape"/>
      <feGaussianBlur stdDeviation="4" result="effect1_foregroundBlur_167_84"/>
    </filter>
  </defs>
</svg>