
<svg width="60" height="60" viewBox="0 0 60 60" fill="none" xmlns="http://www.w3.org/2000/svg">
<g filter="url(#filter0_f_175_98)">
<path d="M41.882 46.0868C34.0504 51.8855 22.95 51.2413 15.8578 44.1435C8.0474 36.3327 8.0474 23.6688 15.8578 15.8581C23.6682 8.04731 36.3265 8.04731 44.1422 15.8581C51.9526 23.6688 51.9526 36.3276 44.1422 44.1383" stroke="url(#paint0_linear_175_98)" stroke-width="2.64" stroke-miterlimit="10"/>
<path d="M35.2387 23.2095C34.5892 23.2095 34.0664 23.7322 34.0664 24.3817C34.0664 25.0313 34.5892 25.5488 35.2387 25.5488C35.8883 25.5488 36.4058 25.026 36.4058 24.3817C36.4058 23.7374 35.883 23.2095 35.2387 23.2095Z" stroke="url(#paint1_linear_175_98)" stroke-width="2.64" stroke-miterlimit="10"/>
<path d="M30.037 25.0842C27.3279 25.0842 25.1206 27.2862 25.1206 30.0007C25.1206 32.7152 27.3279 34.9177 30.037 34.9177C32.7461 34.9177 34.9482 32.7152 34.9482 30.0007C34.9482 27.2862 32.7461 25.0842 30.037 25.0842Z" stroke="url(#paint2_linear_175_98)" stroke-width="2.64" stroke-miterlimit="10"/>
<path d="M33.9818 39.9771H26.0129C22.7071 39.9771 20.019 37.2887 20.019 33.9828V26.0136C20.019 22.7077 22.7071 20.0198 26.0129 20.0198H33.9818C37.2876 20.0198 39.9755 22.7077 39.9755 26.0136V33.9828C39.9755 37.2887 37.2876 39.9771 33.9818 39.9771Z" stroke="url(#paint3_linear_175_98)" stroke-width="2.64" stroke-miterlimit="10"/>
<path style="mix-blend-mode:soft-light" d="M35.2387 23.2095C34.5892 23.2095 34.0664 23.7322 34.0664 24.3817C34.0664 25.0313 34.5892 25.5488 35.2387 25.5488C35.8883 25.5488 36.4058 25.026 36.4058 24.3817C36.4058 23.7374 35.883 23.2095 35.2387 23.2095Z" stroke="url(#paint4_linear_175_98)" stroke-width="0.88" stroke-miterlimit="10"/>
<path style="mix-blend-mode:soft-light" d="M30.037 25.0842C27.3279 25.0842 25.1206 27.2862 25.1206 30.0007C25.1206 32.7152 27.3279 34.9177 30.037 34.9177C32.7461 34.9177 34.9482 32.7152 34.9482 30.0007C34.9482 27.2862 32.7461 25.0842 30.037 25.0842Z" stroke="url(#paint5_linear_175_98)" stroke-width="0.88" stroke-miterlimit="10"/>
<path style="mix-blend-mode:soft-light" d="M33.9818 39.9771H26.0129C22.7071 39.9771 20.019 37.2887 20.019 33.9828V26.0136C20.019 22.7077 22.7071 20.0198 26.0129 20.0198H33.9818C37.2876 20.0198 39.9755 22.7077 39.9755 26.0136V33.9828C39.9755 37.2887 37.2876 39.9771 33.9818 39.9771Z" stroke="url(#paint6_linear_175_98)" stroke-width="0.88" stroke-miterlimit="10"/>
</g>
<path d="M41.882 46.0868C34.0504 51.8855 22.95 51.2413 15.8578 44.1435C8.0474 36.3327 8.0474 23.6688 15.8578 15.8581C23.6682 8.04731 36.3265 8.04731 44.1422 15.8581C51.9526 23.6688 51.9526 36.3276 44.1422 44.1383" stroke="url(#paint7_linear_175_98)" stroke-width="2.64" stroke-miterlimit="10" stroke-linecap="round"/>
<path d="M35.2387 23.2095C34.5892 23.2095 34.0664 23.7322 34.0664 24.3817C34.0664 25.0313 34.5892 25.5488 35.2387 25.5488C35.8883 25.5488 36.4058 25.026 36.4058 24.3817C36.4058 23.7374 35.883 23.2095 35.2387 23.2095Z" stroke="url(#paint8_linear_175_98)" stroke-width="3" stroke-miterlimit="10"/>
<path d="M30.037 25.0842C27.3279 25.0842 25.1206 27.2862 25.1206 30.0007C25.1206 32.7152 27.3279 34.9177 30.037 34.9177C32.7461 34.9177 34.9482 32.7152 34.9482 30.0007C34.9482 27.2862 32.7461 25.0842 30.037 25.0842Z" stroke="url(#paint9_linear_175_98)" stroke-width="3" stroke-miterlimit="10"/>
<path d="M33.9818 39.9771H26.0129C22.7071 39.9771 20.019 37.2887 20.019 33.9828V26.0136C20.019 22.7077 22.7071 20.0198 26.0129 20.0198H33.9818C37.2876 20.0198 39.9755 22.7077 39.9755 26.0136V33.9828C39.9755 37.2887 37.2876 39.9771 33.9818 39.9771Z" stroke="url(#paint10_linear_175_98)" stroke-width="3" stroke-miterlimit="10"/>
<g style="mix-blend-mode:soft-light">
<path d="M41.882 46.0868C34.0504 51.8855 22.95 51.2413 15.8578 44.1435C8.0474 36.3327 8.0474 23.6688 15.8578 15.8581C23.6682 8.04731 36.3265 8.04731 44.1422 15.8581C51.9526 23.6688 51.9526 36.3276 44.1422 44.1383" stroke="url(#paint11_linear_175_98)" stroke-width="0.88" stroke-miterlimit="10" stroke-linecap="round" style="mix-blend-mode:soft-light"/>
<path style="mix-blend-mode:soft-light" d="M35.2387 23.2097C34.5892 23.2097 34.0664 23.7324 34.0664 24.382C34.0664 25.0316 34.5892 25.5491 35.2387 25.5491C35.8883 25.5491 36.4058 25.0263 36.4058 24.382C36.4058 23.7377 35.883 23.2097 35.2387 23.2097Z" stroke="url(#paint12_linear_175_98)" stroke-width="0.88" stroke-miterlimit="10"/>
<path style="mix-blend-mode:soft-light" d="M30.037 25.084C27.3279 25.084 25.1206 27.286 25.1206 30.0005C25.1206 32.715 27.3279 34.9175 30.037 34.9175C32.7461 34.9175 34.9482 32.715 34.9482 30.0005C34.9482 27.286 32.7461 25.084 30.037 25.084Z" stroke="url(#paint13_linear_175_98)" stroke-width="0.88" stroke-miterlimit="10"/>
<path style="mix-blend-mode:soft-light" d="M33.9818 39.9769H26.0129C22.7071 39.9769 20.019 37.2885 20.019 33.9825V26.0134C20.019 22.7074 22.7071 20.0195 26.0129 20.0195H33.9818C37.2876 20.0195 39.9755 22.7074 39.9755 26.0134V33.9825C39.9755 37.2885 37.2876 39.9769 33.9818 39.9769Z" stroke="url(#paint14_linear_175_98)" stroke-width="0.88" stroke-miterlimit="10"/>
</g>
<defs>
<filter id="filter0_f_175_98" x="0.680176" y="0.679932" width="58.6396" height="58.6399" filterUnits="userSpaceOnUse" color-interpolation-filters="sRGB">
<feFlood flood-opacity="0" result="BackgroundImageFix"/>
<feBlend mode="normal" in="SourceGraphic" in2="BackgroundImageFix" result="shape"/>
<feGaussianBlur stdDeviation="4" result="effect1_foregroundBlur_175_98"/>
</filter>
<linearGradient id="paint0_linear_175_98" x1="9.29896" y1="30.0007" x2="50.6905" y2="30.0007" gradientUnits="userSpaceOnUse">
<stop offset="0.02" stop-color="#EE7CE0"/>
<stop offset="1" stop-color="#ED7248"/>
</linearGradient>
<linearGradient id="paint1_linear_175_98" x1="33.3693" y1="24.3765" x2="37.1029" y2="24.3765" gradientUnits="userSpaceOnUse">
<stop offset="0.02" stop-color="#EE7CE0"/>
<stop offset="1" stop-color="#ED7248"/>
</linearGradient>
<linearGradient id="paint2_linear_175_98" x1="24.4235" y1="30.001" x2="35.6453" y2="30.001" gradientUnits="userSpaceOnUse">
<stop offset="0.02" stop-color="#EE7CE0"/>
<stop offset="1" stop-color="#ED7248"/>
</linearGradient>
<linearGradient id="paint3_linear_175_98" x1="19.322" y1="30.0011" x2="40.6726" y2="30.0011" gradientUnits="userSpaceOnUse">
<stop offset="0.02" stop-color="#EE7CE0"/>
<stop offset="1" stop-color="#ED7248"/>
</linearGradient>
<linearGradient id="paint4_linear_175_98" x1="33.8341" y1="24.3765" x2="36.6382" y2="24.3765" gradientUnits="userSpaceOnUse">
<stop offset="0.02" stop-color="#EE7CE0"/>
<stop offset="1" stop-color="#ED7248"/>
</linearGradient>
<linearGradient id="paint5_linear_175_98" x1="24.8882" y1="30.001" x2="35.1806" y2="30.001" gradientUnits="userSpaceOnUse">
<stop offset="0.02" stop-color="#EE7CE0"/>
<stop offset="1" stop-color="#ED7248"/>
</linearGradient>
<linearGradient id="paint6_linear_175_98" x1="19.7867" y1="30.0011" x2="40.2078" y2="30.0011" gradientUnits="userSpaceOnUse">
<stop offset="0.02" stop-color="#EE7CE0"/>
<stop offset="1" stop-color="#ED7248"/>
</linearGradient>
<linearGradient id="paint7_linear_175_98" x1="9.29896" y1="30.0007" x2="50.6905" y2="30.0007" gradientUnits="userSpaceOnUse">
<stop offset="0.02" stop-color="#EE7CE0"/>
<stop offset="1" stop-color="#ED7248"/>
</linearGradient>
<linearGradient id="paint8_linear_175_98" x1="33.3693" y1="24.3765" x2="37.1029" y2="24.3765" gradientUnits="userSpaceOnUse">
<stop offset="0.02" stop-color="#EE7CE0"/>
<stop offset="1" stop-color="#ED7248"/>
</linearGradient>
<linearGradient id="paint9_linear_175_98" x1="24.4235" y1="30.001" x2="35.6453" y2="30.001" gradientUnits="userSpaceOnUse">
<stop offset="0.02" stop-color="#EE7CE0"/>
<stop offset="1" stop-color="#ED7248"/>
</linearGradient>
<linearGradient id="paint10_linear_175_98" x1="19.322" y1="30.0011" x2="40.6726" y2="30.0011" gradientUnits="userSpaceOnUse">
<stop offset="0.02" stop-color="#EE7CE0"/>
<stop offset="1" stop-color="#ED7248"/>
</linearGradient>
<linearGradient id="paint11_linear_175_98" x1="9.53427" y1="30.0053" x2="50.4657" y2="30.0053" gradientUnits="userSpaceOnUse">
<stop offset="0.02" stop-color="#FFEAFC"/>
<stop offset="1" stop-color="#FFF4F0"/>
</linearGradient>
<linearGradient id="paint12_linear_175_98" x1="34.0392" y1="24.3797" x2="36.433" y2="24.3797" gradientUnits="userSpaceOnUse">
<stop offset="0.02" stop-color="#FFEAFC"/>
<stop offset="1" stop-color="#FFF4F0"/>
</linearGradient>
<linearGradient id="paint13_linear_175_98" x1="25.0062" y1="30.002" x2="35.0627" y2="30.002" gradientUnits="userSpaceOnUse">
<stop offset="0.02" stop-color="#FFEAFC"/>
<stop offset="1" stop-color="#FFF4F0"/>
</linearGradient>
<linearGradient id="paint14_linear_175_98" x1="19.7867" y1="30.0009" x2="40.2078" y2="30.0009" gradientUnits="userSpaceOnUse">
<stop offset="0.02" stop-color="#FFEAFC"/>
<stop offset="1" stop-color="#FFF4F0"/>
</linearGradient>
</defs>
</svg>
