<svg width="48" height="42" viewBox="0 0 48 42" fill="none" xmlns="http://www.w3.org/2000/svg">
<path d="M18.0059 13.5C18.0059 14.6935 17.5318 15.8381 16.6878 16.682C15.8439 17.5259 14.6993 18 13.5059 18C12.3124 18 11.1678 17.5259 10.3239 16.682C9.47996 15.8381 9.00586 14.6935 9.00586 13.5C9.00586 12.3065 9.47996 11.1619 10.3239 10.318C11.1678 9.47411 12.3124 9 13.5059 9C14.6993 9 15.8439 9.47411 16.6878 10.318C17.5318 11.1619 18.0059 12.3065 18.0059 13.5Z" fill="#93A3F8"/>
<path d="M6.00586 0C4.41456 0 2.88844 0.632141 1.76322 1.75736C0.638 2.88258 0.00585938 4.4087 0.00585938 6V36C0.00585938 37.5913 0.638 39.1174 1.76322 40.2426C2.88844 41.3679 4.41456 42 6.00586 42H42.0059C43.5972 42 45.1233 41.3679 46.2485 40.2426C47.3737 39.1174 48.0059 37.5913 48.0059 36V6C48.0059 4.4087 47.3737 2.88258 46.2485 1.75736C45.1233 0.632141 43.5972 0 42.0059 0H6.00586ZM42.0059 3C42.8015 3 43.5646 3.31607 44.1272 3.87868C44.6898 4.44129 45.0059 5.20435 45.0059 6V25.5L33.6749 19.659C33.3935 19.5181 33.075 19.4692 32.7644 19.5193C32.4537 19.5693 32.1667 19.7158 31.9439 19.938L20.8139 31.068L12.8339 25.752C12.5457 25.5602 12.2001 25.4739 11.8557 25.5078C11.5112 25.5417 11.1891 25.6937 10.9439 25.938L3.00586 33V6C3.00586 5.20435 3.32193 4.44129 3.88454 3.87868C4.44715 3.31607 5.21021 3 6.00586 3H42.0059Z" fill="#93A3F8"/>
</svg>
