<svg width="40" height="40" viewBox="0 0 40 40" fill="none" xmlns="http://www.w3.org/2000/svg">
<rect x="1.5" y="1.5" width="37" height="37" rx="18.5" fill="#080F20"/>
<path fill-rule="evenodd" clip-rule="evenodd" d="M22.7879 13.6871C23.329 13.1876 24.1725 13.2214 24.672 13.7625L28.9797 18.4291C29.4512 18.9398 29.4512 19.7271 28.9797 20.2378L24.672 24.9045C24.1725 25.4456 23.329 25.4794 22.7879 24.9799C22.2468 24.4804 22.213 23.6369 22.7125 23.0958L24.9547 20.6668L12 20.6668C11.2636 20.6668 10.6666 20.0698 10.6666 19.3335C10.6666 18.5971 11.2636 18.0001 12 18.0001L24.9546 18.0001L22.7125 15.5712C22.2131 15.0301 22.2468 14.1866 22.7879 13.6871Z" fill="#FBFBFB" fill-opacity="0.5"/>
<rect x="1.5" y="1.5" width="37" height="37" rx="18.5" stroke="#161E32" stroke-width="3"/>
</svg>
