<svg xmlns="http://www.w3.org/2000/svg" width="48" height="48" viewBox="0 0 48 48" fill="none">
  <path fill-rule="evenodd" clip-rule="evenodd" d="M24 8C20.0955 8 16.4963 8.32201 13.6074 8.70355C11.0074 9.04693 9.04693 11.0074 8.70355 13.6074C8.32201 16.4963 8 20.0955 8 24C8 27.9045 8.32201 31.5037 8.70355 34.3926C9.04693 36.9926 11.0074 38.9531 13.6074 39.2965C16.4963 39.678 20.0955 40 24 40C27.9045 40 31.5037 39.678 34.3926 39.2965C36.9926 38.9531 38.9531 36.9926 39.2965 34.3926C39.678 31.5037 40 27.9045 40 24C40 20.0955 39.678 16.4963 39.2965 13.6074C38.9531 11.0074 36.9926 9.04693 34.3926 8.70355C31.5037 8.32201 27.9045 8 24 8ZM13.0837 4.73799C8.69009 5.31825 5.31825 8.69009 4.73799 13.0837C4.33907 16.1042 4 19.8825 4 24C4 28.1175 4.33907 31.8958 4.73799 34.9163C5.31825 39.3099 8.69009 42.6818 13.0837 43.262C16.1042 43.6609 19.8825 44 24 44C28.1175 44 31.8958 43.6609 34.9163 43.262C39.3099 42.6818 42.6818 39.3099 43.262 34.9163C43.6609 31.8958 44 28.1175 44 24C44 19.8825 43.6609 16.1042 43.262 13.0837C42.6818 8.69009 39.3099 5.31825 34.9163 4.73799C31.8958 4.33907 28.1175 4 24 4C19.8825 4 16.1042 4.33907 13.0837 4.73799Z" fill="#FBFBFB" fill-opacity="0.5"/>
  <path d="M18 22C20.2091 22 22 20.2091 22 18C22 15.7909 20.2091 14 18 14C15.7909 14 14 15.7909 14 18C14 20.2091 15.7909 22 18 22Z" fill="#FBFBFB" fill-opacity="0.5"/>
  <path d="M36.2426 25.4146L39.8313 29.0032C39.7074 30.8756 39.5266 32.613 39.3273 34.1561L33.4142 28.243C32.6332 27.462 31.3668 27.462 30.5858 28.243L26.2426 32.5862C23.8995 34.9293 20.1005 34.9293 17.7573 32.5862L17.4142 32.243C16.6332 31.462 15.3668 31.462 14.5858 32.243L9.76765 37.0611C9.2095 36.3044 8.83605 35.3961 8.70351 34.3926C8.63124 33.8453 8.56109 33.2726 8.49487 32.6771L11.7574 29.4146C14.1005 27.0714 17.8995 27.0714 20.2426 29.4146L20.5858 29.7577C21.3668 30.5388 22.6332 30.5388 23.4142 29.7577L27.7574 25.4146C30.1005 23.0714 33.8995 23.0714 36.2426 25.4146Z" fill="#FBFBFB" fill-opacity="0.5"/>
</svg>