<svg width="48" height="48" viewBox="0 0 48 48" fill="none" xmlns="http://www.w3.org/2000/svg">
<g id="icons/create">
<path id="Shape" fill-rule="evenodd" clip-rule="evenodd" d="M6 10C6 5.58172 9.58172 2 14 2H30.6863C32.808 2 34.8429 2.84286 36.3431 4.34315L39.6569 7.65686C41.1571 9.15715 42 11.192 42 13.3137V38C42 42.4183 38.4183 46 34 46H14C9.58172 46 6 42.4183 6 38V10ZM38 16V38C38 40.2091 36.2091 42 34 42H14C11.7909 42 10 40.2091 10 38V10C10 7.79086 11.7909 6 14 6H28V10C28 13.3137 30.6863 16 34 16H38ZM37.7781 12C37.5817 11.4352 37.2593 10.9162 36.8284 10.4853L33.5147 7.17157C33.0839 6.74071 32.5648 6.41828 32 6.22188V10C32 11.1046 32.8954 12 34 12H37.7781Z"/>
<g id="Shape_2">
<path d="M16 7C16 6.44772 16.4477 6 17 6H19C19.5523 6 20 6.44772 20 7V9C20 9.55229 19.5523 10 19 10H17C16.4477 10 16 9.55229 16 9V7Z"/>
<path d="M16 15C16 14.4477 16.4477 14 17 14H19C19.5523 14 20 14.4477 20 15V17C20 17.5523 19.5523 18 19 18H17C16.4477 18 16 17.5523 16 17V15Z"/>
<path d="M20 19C20 18.4477 20.4477 18 21 18H23C23.5523 18 24 18.4477 24 19V21C24 21.5523 23.5523 22 23 22H21C20.4477 22 20 21.5523 20 21V19Z"/>
<path d="M17 22C16.4477 22 16 22.4477 16 23V25C16 25.5523 16.4477 26 17 26H19C19.5523 26 20 25.5523 20 25V23C20 22.4477 19.5523 22 19 22H17Z"/>
<path d="M20 27C20 26.4477 20.4477 26 21 26H23C23.5523 26 24 26.4477 24 27V29C24 29.5523 23.5523 30 23 30H21C20.4477 30 20 29.5523 20 29V27Z"/>
<path d="M17 30C16.4477 30 16 30.4477 16 31V33C16 33.5523 16.4477 34 17 34H19C19.5523 34 20 33.5523 20 33V31C20 30.4477 19.5523 30 19 30H17Z"/>
<path d="M20 35C20 34.4477 20.4477 34 21 34H23C23.5523 34 24 34.4477 24 35V37C24 37.5523 23.5523 38 23 38H21C20.4477 38 20 37.5523 20 37V35Z"/>
<path d="M17 38C16.4477 38 16 38.4477 16 39V41C16 41.5523 16.4477 42 17 42H19C19.5523 42 20 41.5523 20 41V39C20 38.4477 19.5523 38 19 38H17Z"/>
<path d="M21 10C20.4477 10 20 10.4477 20 11V13C20 13.5523 20.4477 14 21 14H23C23.5523 14 24 13.5523 24 13V11C24 10.4477 23.5523 10 23 10H21Z"/>
</g>
</g>
</svg>
