<svg width="48" height="48" viewBox="0 0 48 48" fill="none" xmlns="http://www.w3.org/2000/svg">
<g id="icons/create">
<path id="Vector (Stroke)" fill-rule="evenodd" clip-rule="evenodd" d="M22.9922 2.77244C23.6149 2.40919 24.385 2.40919 25.0077 2.77244L43.0077 13.2724C43.6221 13.6309 44 14.2887 44 15C44 15.7113 43.6221 16.3691 43.0077 16.7276L25.0077 27.2276C24.385 27.5908 23.6149 27.5908 22.9922 27.2276L4.99222 16.7276C4.37778 16.3691 3.99996 15.7113 3.99996 15C3.99996 14.2887 4.37778 13.6309 4.99222 13.2724L22.9922 2.77244ZM9.96922 15L24 23.1846L38.0307 15L24 6.81541L9.96922 15ZM4.2724 22.9923C4.82896 22.0382 6.05359 21.7159 7.0077 22.2724L24 32.1846L40.9922 22.2724C41.9463 21.7159 43.171 22.0382 43.7275 22.9923C44.2841 23.9464 43.9618 25.171 43.0077 25.7276L25.0077 36.2275C24.385 36.5908 23.6149 36.5908 22.9922 36.2275L4.99222 25.7276C4.03812 25.171 3.71584 23.9464 4.2724 22.9923ZM4.2724 31.9923C4.82896 31.0382 6.0536 30.7159 7.0077 31.2724L24 41.1846L40.9922 31.2724C41.9463 30.7159 43.171 31.0382 43.7275 31.9923C44.2841 32.9464 43.9618 34.171 43.0077 34.7276L25.0077 45.2276C24.385 45.5908 23.6149 45.5908 22.9922 45.2276L4.99221 34.7276C4.03811 34.171 3.71584 32.9464 4.2724 31.9923Z"/>
</g>
</svg>
