<svg width="48" height="48" viewBox="0 0 48 48" fill="none" xmlns="http://www.w3.org/2000/svg">
<path fill-rule="evenodd" clip-rule="evenodd" d="M36 12L12 12C10.8954 12 10 12.8954 10 14L10 38C10 39.1046 10.8954 40 12 40L36 40C37.1046 40 38 39.1046 38 38V14C38 12.8954 37.1046 12 36 12ZM12 8C8.68629 8 6 10.6863 6 14L6 38C6 41.3137 8.68629 44 12 44L36 44C39.3137 44 42 41.3137 42 38L42 14C42 10.6863 39.3137 8 36 8L12 8Z" fill="#777E91"/>
<path d="M12 2C12 3.10457 12.8954 4 14 4L34 4C35.1046 4 36 3.10457 36 2C36 0.895431 35.1046 0 34 0L14 0C12.8954 0 12 0.895431 12 2Z" fill="#777E91"/>
<path d="M23.1094 20.0727L29.5038 24.3356C30.6913 25.1273 30.6913 26.8722 29.5038 27.6638L23.1094 31.9268C21.7803 32.8129 20 31.8601 20 30.2627L20 21.7368C20 20.1394 21.7803 19.1866 23.1094 20.0727Z" fill="#777E91"/>
</svg>
