<svg width="56" height="56" viewBox="0 0 56 56" fill="none" xmlns="http://www.w3.org/2000/svg">
<g clip-path="url(#clip0_558_9080)">
<path fill-rule="evenodd" clip-rule="evenodd" d="M56 28C56 43.464 43.464 56 28 56C12.536 56 0 43.464 0 28C0 12.536 12.536 0 28 0C43.464 0 56 12.536 56 28ZM20.0657 39.142H14.6317C13.4899 39.142 12.9258 39.142 12.5818 38.9219C12.2104 38.6811 11.9834 38.2822 11.9559 37.842C11.9353 37.4361 12.2173 36.9409 12.7813 35.9504L26.1986 12.3006C26.7695 11.2963 27.0584 10.7942 27.4229 10.6085C27.815 10.4091 28.2828 10.4091 28.6749 10.6085C29.0394 10.7942 29.3283 11.2963 29.8992 12.3006L32.6575 17.1156L32.6716 17.1402C33.2882 18.2176 33.601 18.7639 33.7374 19.3373C33.8887 19.9633 33.8887 20.6236 33.7374 21.2495C33.5999 21.8274 33.2903 22.3777 32.6644 23.4714L25.6167 35.9298L25.5984 35.9617C24.9776 37.0479 24.6631 37.5984 24.2271 38.014C23.7526 38.4679 23.1817 38.798 22.5557 38.9838C21.9848 39.142 21.3451 39.142 20.0657 39.142ZM33.7883 39.1426H41.5748C42.7236 39.1426 43.3013 39.1426 43.6453 38.9157C44.0167 38.6749 44.2506 38.269 44.2712 37.8288C44.2912 37.4364 44.0152 36.9603 43.4745 36.0274C43.4561 35.9955 43.4373 35.9632 43.4183 35.9304L39.5182 29.2582L39.4738 29.1832C38.9257 28.2563 38.6489 27.7883 38.2938 27.6074C37.9017 27.4079 37.4409 27.4079 37.0488 27.6074C36.6911 27.793 36.4022 28.2815 35.8313 29.2651L31.9449 35.9372L31.9316 35.9602C31.3627 36.9423 31.0784 37.433 31.0989 37.8357C31.1264 38.276 31.3533 38.6818 31.7248 38.9225C32.0619 39.1426 32.6396 39.1426 33.7883 39.1426Z" fill="#EE4544"/>
</g>
<defs>
<clipPath id="clip0_558_9080">
<rect width="56" height="56" fill="white"/>
</clipPath>
</defs>
</svg>
