<svg width="32" height="33" viewBox="0 0 32 33" fill="none" xmlns="http://www.w3.org/2000/svg">
<g id="Group">
<path id="Vector" d="M16 32.0117C24.8366 32.0117 32 24.8483 32 16.0117C32 7.17516 24.8366 0.0117188 16 0.0117188C7.16344 0.0117188 0 7.17516 0 16.0117C0 24.8483 7.16344 32.0117 16 32.0117Z" fill="#627EEA"/>
<g id="Group_2">
<path id="Vector_2" d="M16 4.01172V12.8817L23.497 16.2317L16 4.01172Z" fill="white" fill-opacity="0.602"/>
<path id="Vector_3" d="M16.498 4.01172L9 16.2317L16.498 12.8817V4.01172Z" fill="white"/>
<path id="Vector_4" d="M16 22.3637V28.3907L23.502 18.0117L16 22.3637Z" fill="white" fill-opacity="0.602"/>
<path id="Vector_5" d="M16.498 28.3907V22.3627L9 18.0117L16.498 28.3907Z" fill="white"/>
<path id="Vector_6" d="M16 20.7127L23.497 16.3597L16 13.0117V20.7127Z" fill="white" fill-opacity="0.2"/>
<path id="Vector_7" d="M9 16.3597L16.498 20.7127V13.0117L9 16.3597Z" fill="white" fill-opacity="0.602"/>
</g>
</g>
</svg>
