<svg width="48" height="48" viewBox="0 0 48 48" fill="none" xmlns="http://www.w3.org/2000/svg">
<path d="M37.4197 1.28571H11.7054C6.02475 1.28571 1.41968 5.89078 1.41968 11.5714V37.2857C1.41968 42.9664 6.02475 47.5714 11.7054 47.5714H37.4197C43.1003 47.5714 47.7054 42.9664 47.7054 37.2857V11.5714C47.7054 5.89078 43.1003 1.28571 37.4197 1.28571Z" fill="#8247E5"/>
<mask id="mask0_558_9067" style="mask-type:luminance" maskUnits="userSpaceOnUse" x="4" y="4" width="41" height="40">
<path d="M44.1441 4.00281H4.14917V43.9977H44.1441V4.00281Z" fill="white"/>
</mask>
<g mask="url(#mask0_558_9067)">
<path d="M37.4879 24.4685V30.5014C37.4858 30.8777 37.3864 31.2468 37.1994 31.573C37.0126 31.8991 36.7444 32.1709 36.4215 32.3619L31.2137 35.3722C30.8913 35.565 30.5228 35.667 30.1473 35.667C29.7718 35.667 29.4033 35.565 29.0807 35.3722L23.8731 32.3619C23.55 32.1709 23.282 31.8991 23.095 31.573C22.9081 31.2468 22.8087 30.8777 22.8065 30.5014V28.8082L25.4728 27.255V30.1983L30.1389 32.9159L34.805 30.1983V24.7758L30.1389 22.0582L19.207 28.4131C18.8814 28.5972 18.514 28.6939 18.1404 28.6939C17.7668 28.6939 17.3995 28.5972 17.0739 28.4131L11.8662 25.3904C11.5482 25.1964 11.2853 24.9236 11.1028 24.5981C10.9205 24.2725 10.8246 23.9054 10.8247 23.5319V17.4989C10.8268 17.1227 10.9263 16.7536 11.1132 16.4274C11.3002 16.1014 11.5683 15.8295 11.8913 15.6385L17.0989 12.6283C17.4221 12.4373 17.7904 12.3365 18.1654 12.3365C18.5405 12.3365 18.9088 12.4373 19.232 12.6283L24.4396 15.6385C24.7626 15.8295 25.0307 16.1014 25.2176 16.4274C25.4046 16.7536 25.504 17.1227 25.5062 17.4989V19.1922L22.8232 20.7349V17.8084L18.1571 15.0908L13.491 17.8084V23.2247L18.1571 25.9422L29.0891 19.5873C29.4146 19.4033 29.782 19.3066 30.1556 19.3066C30.5292 19.3066 30.8966 19.4033 31.2221 19.5873L36.4298 22.6101C36.7509 22.8019 37.0171 23.0739 37.2026 23.3995C37.388 23.7252 37.4863 24.0935 37.4879 24.4685Z" fill="white"/>
</g>
</svg>
