<svg width="16" height="16" viewBox="0 0 16 16" fill="none" xmlns="http://www.w3.org/2000/svg">
<g id="icon-upload">
<path id="Shape" fill-rule="evenodd" clip-rule="evenodd" d="M2 3.33317C2 1.86041 3.19391 0.666504 4.66667 0.666504H10.2288C10.936 0.666504 11.6143 0.947456 12.1144 1.44755L13.219 2.55212C13.719 3.05222 14 3.7305 14 4.43774V12.6665C14 14.1393 12.8061 15.3332 11.3333 15.3332H4.66667C3.19391 15.3332 2 14.1393 2 12.6665V3.33317ZM12.6667 5.33317V12.6665C12.6667 13.4029 12.0697 13.9998 11.3333 13.9998H4.66667C3.93029 13.9998 3.33333 13.4029 3.33333 12.6665V3.33317C3.33333 2.59679 3.93029 1.99984 4.66667 1.99984H9.33333V3.33317C9.33333 4.43774 10.2288 5.33317 11.3333 5.33317H12.6667ZM12.5927 3.99984C12.5272 3.81157 12.4198 3.63855 12.2761 3.49493L11.1716 2.39036C11.028 2.24674 10.8549 2.13927 10.6667 2.0738V3.33317C10.6667 3.70136 10.9651 3.99984 11.3333 3.99984H12.5927Z" fill="#93A3F8"/>
<path id="Shape_2" d="M7.74497 6.05059C7.66634 6.08312 7.59268 6.13134 7.52876 6.19526L5.52876 8.19526C5.26841 8.45561 5.26841 8.87772 5.52876 9.13807C5.78911 9.39842 6.21122 9.39842 6.47157 9.13807L7.3335 8.27614V11.3333C7.3335 11.7015 7.63197 12 8.00016 12C8.36835 12 8.66683 11.7015 8.66683 11.3333V8.27614L9.52876 9.13807C9.78911 9.39842 10.2112 9.39842 10.4716 9.13807C10.7319 8.87772 10.7319 8.45561 10.4716 8.19526L8.47157 6.19526C8.27514 5.99883 7.98662 5.9506 7.74497 6.05059Z" fill="#93A3F8"/>
</g>
</svg>
