<svg width="24" height="24" viewBox="0 0 24 24" fill="none" xmlns="http://www.w3.org/2000/svg">
<g id="icon-socials">
<path id="Vector" d="M21.6847 2.97208C21.4767 2.79576 21.2247 2.67912 20.9556 2.63455C20.6866 2.58998 20.4104 2.61915 20.1566 2.71895L2.85037 9.51583C2.54682 9.63148 2.2897 9.84371 2.11861 10.1198C1.94752 10.396 1.87193 10.7207 1.9035 11.044C1.93166 11.3671 2.06382 11.6725 2.28018 11.9142C2.49653 12.1559 2.78541 12.3209 3.1035 12.3846L7.50037 13.2565V18.7502C7.50021 19.0474 7.58835 19.338 7.75359 19.585C7.91884 19.832 8.15374 20.0244 8.4285 20.1377C8.61033 20.2109 8.80436 20.2491 9.00037 20.2502C9.19738 20.2509 9.39255 20.2123 9.57445 20.1366C9.75636 20.061 9.92134 19.9498 10.0597 19.8096L12.4972 17.3815L16.1816 20.6252C16.4536 20.8651 16.8033 20.9983 17.166 21.0002C17.3255 21.0035 17.4843 20.9781 17.6347 20.9252C17.8821 20.8469 18.1048 20.7054 18.2808 20.5147C18.4567 20.324 18.5798 20.0906 18.6379 19.8377L22.1629 4.44395C22.2245 4.17833 22.2125 3.90093 22.1283 3.6416C22.044 3.38226 21.8907 3.15079 21.6847 2.97208ZM8.07225 11.8408L3.4035 10.9127L16.491 5.76583L8.07225 11.8408ZM9.00037 18.7502V14.3065L11.3629 16.3877L9.00037 18.7502ZM17.1754 19.5002L9.45037 12.7033L20.5785 4.66895L17.1754 19.5002Z" fill="#FBFBFB" fill-opacity="0.85"/>
</g>
</svg>
