<svg width="116" height="116" viewBox="0 0 116 116" fill="none" xmlns="http://www.w3.org/2000/svg">
<path d="M98.3335 59.1575V76.8891C98.3271 77.995 98.029 79.0801 97.4678 80.0386C96.9072 80.9972 96.1027 81.7961 95.1337 82.3574L79.5085 91.2051C78.541 91.7719 77.4354 92.0714 76.3087 92.0714C75.182 92.0714 74.0764 91.7719 73.1086 91.2051L57.4837 82.3574C56.5144 81.7961 55.7102 80.9972 55.1493 80.0386C54.5884 79.0801 54.29 77.995 54.2836 76.8891V71.9125L62.2836 67.3476V75.9982L76.2835 83.9856L90.2836 75.9982V60.0606L76.2835 52.0733L43.4835 70.7514C42.5068 71.2923 41.4045 71.5767 40.2835 71.5767C39.1624 71.5767 38.0604 71.2923 37.0834 70.7514L21.4584 61.8672C20.5043 61.2971 19.7156 60.4952 19.168 59.5384C18.6208 58.5816 18.3332 57.5025 18.3335 56.4049V38.673C18.3399 37.5673 18.6383 36.4823 19.1992 35.5237C19.7601 34.5654 20.5645 33.7663 21.5335 33.205L37.1585 24.3576C38.1283 23.796 39.2332 23.5 40.3586 23.5C41.484 23.5 42.5888 23.796 43.5586 24.3576L59.1836 33.205C60.1526 33.7663 60.9571 34.5654 61.5177 35.5237C62.0789 36.4823 62.3769 37.5673 62.3836 38.673V43.6499L54.3335 48.184V39.5825L40.3336 31.5952L26.3335 39.5825V55.5017L40.3336 63.4891L73.1336 44.811C74.1103 44.2701 75.2126 43.9859 76.3336 43.9859C77.4547 43.9859 78.5569 44.2701 79.5337 44.811L95.1587 53.6954C96.122 54.2592 96.9208 55.0586 97.4773 56.0157C98.0336 56.9727 98.3286 58.0553 98.3335 59.1575Z" fill="#8850E6"/>
</svg>
