<svg width="24" height="24" viewBox="0 0 24 24" fill="none" xmlns="http://www.w3.org/2000/svg">
<g id="icon-socials">
<path id="Vector " fill-rule="evenodd" clip-rule="evenodd" d="M18.8616 14.6027H16.1964V22.5714H18.7143C19.7768 22.5714 20.6853 22.1942 21.4397 21.4397C22.1942 20.6853 22.5714 19.7768 22.5714 18.7143V5.85714C22.5714 4.79464 22.1942 3.88616 21.4397 3.1317C20.6853 2.37723 19.7768 2 18.7143 2H5.85714C4.79464 2 3.88616 2.37723 3.1317 3.1317C2.37723 3.88616 2 4.79464 2 5.85714V18.7143C2 19.7768 2.37723 20.6853 3.1317 21.4397C3.88616 22.1942 4.79464 22.5714 5.85714 22.5714H12.9821V14.6027H10.3036V11.4955H12.9821V9.20536C12.9821 7.90179 13.346 6.89286 14.0737 6.17857C14.8013 5.46429 15.7723 5.10714 16.9866 5.10714C18.0134 5.10714 18.808 5.14732 19.3705 5.22768V8L17.7366 8.01339C17.1295 8.01339 16.721 8.13839 16.5112 8.38839C16.3013 8.63839 16.1964 9.01339 16.1964 9.51339V11.4955H19.2634L18.8616 14.6027ZM17.3964 10.2955H20.6286L19.9164 15.8027H17.3964V21.3714H18.7143C19.457 21.3714 20.0607 21.1217 20.5912 20.5912C21.1217 20.0607 21.3714 19.457 21.3714 18.7143V5.85714C21.3714 5.11441 21.1217 4.51071 20.5912 3.98022C20.0607 3.44974 19.457 3.2 18.7143 3.2H5.85714C5.11441 3.2 4.51071 3.44974 3.98022 3.98022C3.44974 4.51071 3.2 5.11441 3.2 5.85714V18.7143C3.2 19.457 3.44974 20.0607 3.98022 20.5912C4.51071 21.1217 5.11441 21.3714 5.85714 21.3714H11.7821V15.8027H9.10357V10.2955H11.7821V9.20536C11.7821 7.67396 12.2159 6.32059 13.2331 5.3222C14.2271 4.34646 15.5221 3.90714 16.9866 3.90714C18.0327 3.90714 18.8938 3.94738 19.5402 4.03974L20.5705 4.18692V9.1902L17.7366 9.21343C17.5923 9.21343 17.4887 9.22313 17.4183 9.23444C17.4065 9.29627 17.3964 9.38705 17.3964 9.51339V10.2955Z" fill="#FBFBFB" fill-opacity="0.85"/>
</g>
</svg>
