<svg xmlns="http://www.w3.org/2000/svg" width="20" height="20" viewBox="0 0 20 20" fill="none">
  <path fill-rule="evenodd" clip-rule="evenodd" d="M9.15074 6.66933C9.15074 4.36667 11.0174 2.5 13.3201 2.5C14.6721 2.5 15.7507 3.13867 16.4734 4.06667C17.2378 3.90999 17.9706 3.62652 18.6414 3.228C18.3816 4.03627 17.8379 4.72308 17.1107 5.16133L17.1134 5.16533C17.8037 5.08193 18.4777 4.89635 19.1134 4.61467L19.1121 4.61733C18.6627 5.29067 18.0987 5.884 17.4481 6.368C17.4827 6.604 17.5014 6.84 17.5014 7.07467C17.5014 11.9907 13.7561 17.708 6.86807 17.708C4.83701 17.7098 2.84842 17.1265 1.14007 16.028C1.05965 15.9764 0.991259 15.9081 0.939543 15.8277C0.887828 15.7473 0.853995 15.6568 0.840338 15.5622C0.826682 15.4676 0.83352 15.3712 0.86039 15.2795C0.887261 15.1878 0.933534 15.1029 0.996075 15.0307C1.05555 14.9318 1.14227 14.8522 1.24585 14.8013C1.34943 14.7505 1.46547 14.7306 1.58007 14.744C2.80141 14.888 4.02007 14.7387 5.09607 14.2693C4.56535 14.0348 4.09022 13.6908 3.70188 13.2597C3.31353 12.8286 3.02075 12.3202 2.84274 11.768C2.80983 11.6653 2.80521 11.5556 2.82938 11.4505C2.85355 11.3454 2.90561 11.2487 2.98007 11.1707C2.54189 10.7861 2.1909 10.3124 1.95061 9.78122C1.71031 9.25004 1.58626 8.67367 1.58674 8.09067V8.04533C1.58671 7.90585 1.63528 7.77071 1.7241 7.66315C1.81292 7.5556 1.93643 7.48235 2.07341 7.456C1.77111 6.87263 1.61379 6.22504 1.61474 5.568C1.61474 4.944 1.61874 4.15733 2.05741 3.448C2.10428 3.37285 2.1672 3.30901 2.24166 3.26106C2.31612 3.21312 2.40027 3.18224 2.48808 3.17067C2.61539 3.13051 2.75183 3.12951 2.87973 3.16778C3.00762 3.20605 3.12108 3.28184 3.20541 3.38533C4.6917 5.21372 6.81753 6.40866 9.15207 6.728V6.66933H9.15074ZM6.86807 16.3747C5.84793 16.3754 4.83469 16.2074 3.86941 15.8773C5.03046 15.6858 6.12559 15.2084 7.05608 14.488C7.15359 14.4115 7.22503 14.3067 7.26057 14.188C7.2961 14.0692 7.294 13.9424 7.25454 13.8249C7.21509 13.7074 7.14022 13.605 7.04022 13.5318C6.94022 13.4586 6.82 13.4181 6.69607 13.416C6.24969 13.408 5.8112 13.2969 5.41479 13.0916C5.01838 12.8862 4.67476 12.592 4.41074 12.232C4.66407 12.212 4.91207 12.168 5.15207 12.104C5.2829 12.069 5.39805 11.9908 5.4788 11.8821C5.55954 11.7734 5.60113 11.6405 5.59681 11.5052C5.59248 11.3698 5.54249 11.2399 5.45497 11.1366C5.36744 11.0332 5.24754 10.9625 5.11474 10.936C4.60748 10.8332 4.13687 10.5969 3.75151 10.2514C3.36616 9.90587 3.08005 9.46374 2.92274 8.97067C3.18941 9.03467 3.46807 9.07333 3.75341 9.08267C3.8838 9.08705 4.01207 9.04882 4.11878 8.97376C4.22549 8.8987 4.30483 8.7909 4.34477 8.6667C4.38472 8.5425 4.38309 8.40866 4.34014 8.28547C4.29718 8.16228 4.21525 8.05644 4.10674 7.984C3.70888 7.71894 3.38264 7.35971 3.15701 6.93824C2.93139 6.51676 2.81336 6.04607 2.81341 5.568C2.81341 5.344 2.81741 5.14533 2.83074 4.964C4.69644 6.86798 7.21102 7.99912 9.87341 8.132C9.97622 8.13723 10.0788 8.11858 10.1732 8.07751C10.2676 8.03644 10.3512 7.97407 10.4175 7.89528C10.4837 7.8165 10.5309 7.72344 10.5551 7.6234C10.5794 7.52336 10.5802 7.41906 10.5574 7.31867C10.4595 6.90234 10.457 6.46925 10.5501 6.05182C10.6432 5.63439 10.8296 5.24342 11.0952 4.90819C11.3608 4.57296 11.6987 4.30214 12.0838 4.116C12.4689 3.92987 12.891 3.83323 13.3187 3.83333C14.9641 3.83333 16.1667 5.35733 16.1667 7.076C16.1667 11.4173 12.8654 16.3747 6.86674 16.3747H6.86807Z" fill="#FBFBFB" fill-opacity="0.85"/>
</svg>