<svg width="24" height="24" viewBox="0 0 24 24" fill="none" xmlns="http://www.w3.org/2000/svg">
<path fill-rule="evenodd" clip-rule="evenodd" d="M8.09284 3.00937C8.02562 2.99877 7.95729 2.99716 7.88964 3.00457C6.54404 3.15017 4.49604 3.87657 3.28644 4.53257C3.20655 4.57614 3.13504 4.63357 3.07524 4.70217C2.57284 5.27657 2.11684 6.21257 1.76004 7.09897C1.39204 8.00777 1.08804 8.96777 0.916841 9.66217C0.350441 11.9182 0.0416409 14.627 4.09141e-05 17.1966C-0.00128254 17.3248 0.0295208 17.4513 0.0896409 17.5646C0.569641 18.4814 1.60484 19.331 2.64164 19.9518C3.68964 20.5806 4.91364 21.0766 5.89924 21.1726C6.01733 21.1838 6.13642 21.1676 6.24719 21.1251C6.35795 21.0827 6.45736 21.0151 6.53764 20.9278C6.78404 20.6606 7.20324 20.0366 7.52004 19.5518C7.66404 19.331 7.80004 19.1198 7.90564 18.9518C8.96484 19.1438 10.2928 19.2558 11.9728 19.2558C13.6496 19.2558 14.9776 19.1438 16.0368 18.9518C16.1424 19.1214 16.2768 19.331 16.4208 19.5502C16.7376 20.0366 17.1568 20.6606 17.4048 20.9278C17.4851 21.0151 17.5845 21.0827 17.6953 21.1251C17.8061 21.1676 17.9252 21.1838 18.0432 21.1726C19.0288 21.0766 20.2512 20.5806 21.2992 19.9518C22.336 19.331 23.3712 18.4814 23.8528 17.5646C23.9124 17.4512 23.9427 17.3247 23.9408 17.1966C23.9008 14.627 23.5904 11.9166 23.0272 9.66057C22.8009 8.78926 22.5182 7.93359 22.1808 7.09897C21.824 6.21257 21.368 5.27497 20.8672 4.70217C20.807 4.63342 20.7349 4.57598 20.6544 4.53257C19.4464 3.87657 17.3984 3.15017 16.0512 3.00457C15.9841 2.9973 15.9163 2.99891 15.8496 3.00937C15.5481 3.0674 15.2653 3.19811 15.0256 3.39017C14.4889 3.82222 14.055 4.36819 13.7552 4.98857C13.1623 4.94205 12.5677 4.9191 11.9728 4.91977C11.3296 4.91977 10.7344 4.94377 10.1856 4.98697C9.88568 4.36717 9.45176 3.82176 8.91524 3.39017C8.67609 3.19834 8.39383 3.06765 8.09284 3.00937ZM17.6016 18.5486C17.8268 18.8953 18.0578 19.2383 18.2944 19.5774C18.928 19.4334 19.736 19.0974 20.5104 18.6334C21.3792 18.1134 22.0688 17.5134 22.4016 17.0062C22.3488 14.5966 22.0512 12.0942 21.5376 10.0334C21.3284 9.23072 21.0676 8.44241 20.7568 7.67337C20.4368 6.87657 20.0928 6.20137 19.7936 5.81417C18.7536 5.27497 17.1136 4.70537 16.0448 4.55017C16.0127 4.56967 15.9817 4.59104 15.952 4.61417C15.8195 4.71847 15.6983 4.83645 15.5904 4.96617C15.5274 5.04128 15.4671 5.11866 15.4096 5.19817C15.8976 5.28777 16.3328 5.39497 16.7184 5.51337C17.8128 5.84937 18.6016 6.31337 18.9872 6.82697C19.1095 6.98992 19.1619 7.19474 19.1331 7.39638C19.1043 7.59802 18.9966 7.77995 18.8336 7.90217C18.753 7.96268 18.6611 8.00671 18.5634 8.03174C18.4657 8.05677 18.3641 8.06231 18.2642 8.04805C18.0626 8.01924 17.8807 7.91152 17.7584 7.74857C17.664 7.62377 17.2528 7.28457 16.2672 6.98057C15.3152 6.68937 13.9152 6.45577 11.9728 6.45577C10.0304 6.45577 8.62884 6.68937 7.67844 6.98217C6.69284 7.28617 6.28164 7.62217 6.18724 7.74857C6.12673 7.82925 6.05092 7.89723 5.96413 7.94861C5.87735 8 5.78129 8.03378 5.68145 8.04805C5.47981 8.07685 5.27499 8.02438 5.11204 7.90217C5.03136 7.84165 4.96338 7.76584 4.912 7.67906C4.86061 7.59227 4.82682 7.49622 4.81256 7.39638C4.78375 7.19474 4.83623 6.98992 4.95844 6.82697C5.34404 6.31177 6.13284 5.85097 7.22724 5.51497C7.61124 5.39497 8.04644 5.28937 8.53284 5.19977C8.47533 5.11939 8.41447 5.04145 8.35044 4.96617C8.24311 4.83654 8.12245 4.71855 7.99044 4.61417C7.96026 4.59099 7.92874 4.56962 7.89604 4.55017C6.82884 4.70537 5.18884 5.27497 4.14884 5.81417C3.84804 6.20297 3.50564 6.87657 3.18404 7.67337C2.84324 8.52137 2.56004 9.41257 2.40484 10.0334C1.88964 12.0942 1.59204 14.5966 1.54084 17.0062C1.87364 17.515 2.56164 18.1134 3.43044 18.635C4.20644 19.099 5.01284 19.435 5.64804 19.5774C5.88709 19.24 6.11809 18.8969 6.34084 18.5486C5.08484 18.1022 4.41124 17.4894 3.97284 16.8334C3.91695 16.7493 3.87816 16.6551 3.85869 16.5561C3.83921 16.457 3.83944 16.3551 3.85935 16.2562C3.87926 16.1572 3.91846 16.0632 3.97472 15.9794C4.03098 15.8956 4.1032 15.8237 4.18724 15.7678C4.27129 15.7119 4.36552 15.6731 4.46456 15.6536C4.56359 15.6341 4.66549 15.6344 4.76444 15.6543C4.86339 15.6742 4.95745 15.7134 5.04125 15.7696C5.12505 15.8259 5.19695 15.8981 5.25284 15.9822C5.66884 16.6094 6.76324 17.7198 11.9728 17.7198C17.184 17.7198 18.2768 16.6094 18.6928 15.9822C18.8057 15.8124 18.9814 15.6945 19.1812 15.6543C19.3811 15.6141 19.5887 15.6549 19.7584 15.7678C19.9282 15.8806 20.0461 16.0563 20.0863 16.2562C20.1265 16.456 20.0857 16.6636 19.9728 16.8334C19.5344 17.4894 18.8592 18.1038 17.6016 18.5486ZM6.50084 11.307C6.89124 10.8878 7.42084 10.651 7.97284 10.6478C8.52484 10.651 9.05444 10.8878 9.44484 11.307C9.83364 11.7278 10.0528 12.2958 10.0528 12.8878C10.0528 13.4798 9.83364 14.0478 9.44484 14.4686C9.05444 14.8878 8.52484 15.1246 7.97284 15.1278C7.69537 15.1248 7.42148 15.0648 7.16822 14.9514C6.91497 14.838 6.68779 14.6736 6.50084 14.4686C6.10661 14.0368 5.88953 13.4724 5.89284 12.8878C5.89284 12.2958 6.11204 11.7278 6.50084 11.307ZM15.9728 10.6478C15.4208 10.651 14.8912 10.8878 14.5008 11.307C14.112 11.7278 13.8928 12.2958 13.8928 12.8878C13.8928 13.4798 14.112 14.0478 14.5008 14.4686C14.8912 14.8878 15.4208 15.1246 15.9728 15.1278C16.5248 15.1246 17.0544 14.8878 17.4448 14.4686C17.8336 14.0478 18.0528 13.4798 18.0528 12.8878C18.0528 12.2958 17.8336 11.7278 17.4448 11.307C17.2579 11.1019 17.0307 10.9376 16.7775 10.8241C16.5242 10.7107 16.2503 10.6507 15.9728 10.6478Z" fill="#ECF1F9"/>
</svg>
