<svg xmlns="http://www.w3.org/2000/svg" width="20" height="20" viewBox="0 0 20 20" fill="none">
  <path d="M14.4446 12.9082C13.9168 12.9082 13.4298 13.0995 13.0483 13.419L9.21127 10.551C9.27552 10.1867 9.27552 9.81333 9.21127 9.44898L13.0483 6.58099C13.4298 6.90051 13.9168 7.09184 14.4446 7.09184C15.6705 7.09184 16.6668 6.0625 16.6668 4.79592C16.6668 3.52934 15.6705 2.5 14.4446 2.5C13.2187 2.5 12.2224 3.52934 12.2224 4.79592C12.2224 5.01786 12.252 5.23023 12.3094 5.43304L8.66498 8.15944C8.12424 7.419 7.26498 6.93878 6.29646 6.93878C4.65942 6.93878 3.3335 8.30867 3.3335 10C3.3335 11.6913 4.65942 13.0612 6.29646 13.0612C7.26498 13.0612 8.12424 12.581 8.66498 11.8406L12.3094 14.567C12.252 14.7698 12.2224 14.9841 12.2224 15.2041C12.2224 16.4707 13.2187 17.5 14.4446 17.5C15.6705 17.5 16.6668 16.4707 16.6668 15.2041C16.6668 13.9375 15.6705 12.9082 14.4446 12.9082ZM14.4446 3.80102C14.9761 3.80102 15.4076 4.24681 15.4076 4.79592C15.4076 5.34503 14.9761 5.79082 14.4446 5.79082C13.9131 5.79082 13.4816 5.34503 13.4816 4.79592C13.4816 4.24681 13.9131 3.80102 14.4446 3.80102ZM6.29646 11.6837C5.39831 11.6837 4.66683 10.9279 4.66683 10C4.66683 9.07207 5.39831 8.31633 6.29646 8.31633C7.19461 8.31633 7.92609 9.07207 7.92609 10C7.92609 10.9279 7.19461 11.6837 6.29646 11.6837ZM14.4446 16.199C13.9131 16.199 13.4816 15.7532 13.4816 15.2041C13.4816 14.655 13.9131 14.2092 14.4446 14.2092C14.9761 14.2092 15.4076 14.655 15.4076 15.2041C15.4076 15.7532 14.9761 16.199 14.4446 16.199Z" fill="#FBFBFB" fill-opacity="0.85"/>
</svg>