<svg width="24" height="24" viewBox="0 0 24 24" fill="none" xmlns="http://www.w3.org/2000/svg">
<g id="icon-socials-big">
<path id="Vector" fill-rule="evenodd" clip-rule="evenodd" d="M10.9807 8.0032C10.9807 5.24 13.2207 3 15.9839 3C17.6063 3 18.9007 3.7664 19.7679 4.88C20.6852 4.69199 21.5645 4.35183 22.3695 3.8736C22.0578 4.84353 21.4053 5.6677 20.5327 6.1936L20.5359 6.1984C21.3642 6.09832 22.1731 5.87562 22.9359 5.5376L22.9343 5.5408C22.3951 6.3488 21.7183 7.0608 20.9375 7.6416C20.9791 7.9248 21.0015 8.208 21.0015 8.4896C21.0015 14.3888 16.5071 21.2496 8.24149 21.2496C5.80422 21.2517 3.41791 20.5518 1.36789 19.2336C1.27138 19.1717 1.18932 19.0897 1.12726 18.9933C1.0652 18.8968 1.0246 18.7882 1.00821 18.6747C0.991823 18.5612 1.00003 18.4455 1.03227 18.3354C1.06452 18.2253 1.12005 18.1235 1.19509 18.0368C1.26646 17.9181 1.37053 17.8226 1.49482 17.7616C1.61912 17.7006 1.75837 17.6767 1.89589 17.6928C3.36149 17.8656 4.82389 17.6864 6.11509 17.1232C5.47823 16.8418 4.90807 16.4289 4.44206 15.9116C3.97604 15.3943 3.6247 14.7843 3.41109 14.1216C3.3716 13.9983 3.36606 13.8667 3.39506 13.7406C3.42406 13.6144 3.48653 13.4984 3.57589 13.4048C3.05007 12.9433 2.62888 12.3749 2.34053 11.7375C2.05218 11.1001 1.90331 10.4084 1.90389 9.7088V9.6544C1.90386 9.48702 1.96214 9.32485 2.06872 9.19578C2.1753 9.06672 2.32352 8.97882 2.48789 8.9472C2.12514 8.24716 1.93635 7.47004 1.93749 6.6816C1.93749 5.9328 1.94229 4.9888 2.46869 4.1376C2.52494 4.04742 2.60044 3.97082 2.6898 3.91328C2.77915 3.85574 2.88013 3.81869 2.98549 3.8048C3.13827 3.75662 3.302 3.75541 3.45548 3.80134C3.60895 3.84726 3.7451 3.93821 3.84629 4.0624C5.62985 6.25646 8.18084 7.6904 10.9823 8.0736V8.0032H10.9807ZM8.24149 19.6496C7.01732 19.6505 5.80143 19.4488 4.64309 19.0528C6.03635 18.823 7.35052 18.25 8.46709 17.3856C8.58412 17.2938 8.66984 17.168 8.71248 17.0255C8.75513 16.8831 8.75261 16.7309 8.70526 16.5899C8.65791 16.4489 8.56807 16.326 8.44806 16.2382C8.32806 16.1503 8.1838 16.1018 8.03509 16.0992C7.49944 16.0896 6.97324 15.9563 6.49755 15.7099C6.02186 15.4634 5.60952 15.1104 5.29269 14.6784C5.59669 14.6544 5.89429 14.6016 6.18229 14.5248C6.33929 14.4828 6.47747 14.389 6.57436 14.2585C6.67125 14.1281 6.72116 13.9687 6.71597 13.8062C6.71078 13.6438 6.65079 13.4879 6.54577 13.3639C6.44074 13.2399 6.29685 13.1551 6.13749 13.1232C5.52879 12.9999 4.96405 12.7163 4.50162 12.3017C4.0392 11.887 3.69586 11.3565 3.50709 10.7648C3.82709 10.8416 4.16149 10.888 4.50389 10.8992C4.66037 10.9045 4.81429 10.8586 4.94234 10.7685C5.0704 10.6784 5.1656 10.5491 5.21353 10.4C5.26147 10.251 5.25951 10.0904 5.20797 9.94257C5.15642 9.79473 5.0581 9.66773 4.92789 9.5808C4.45046 9.26273 4.05897 8.83166 3.78822 8.32588C3.51747 7.82011 3.37583 7.25529 3.37589 6.6816C3.37589 6.4128 3.38069 6.1744 3.39669 5.9568C5.63553 8.24158 8.65303 9.59894 11.8479 9.7584C11.9713 9.76467 12.0944 9.74229 12.2077 9.69301C12.321 9.64373 12.4213 9.56888 12.5008 9.47434C12.5803 9.3798 12.6368 9.26813 12.666 9.14808C12.6951 9.02803 12.696 8.90287 12.6687 8.7824C12.5512 8.2828 12.5482 7.7631 12.6599 7.26218C12.7717 6.76126 12.9953 6.29211 13.314 5.88983C13.6327 5.48755 14.0383 5.16257 14.5004 4.9392C14.9625 4.71584 15.4691 4.59988 15.9823 4.6C17.9567 4.6 19.3999 6.4288 19.3999 8.4912C19.3999 13.7008 15.4383 19.6496 8.23989 19.6496H8.24149Z" fill="#FBFBFB" fill-opacity="0.85"/>
</g>
</svg>
