<svg width="16" height="16" viewBox="0 0 16 16" fill="none" xmlns="http://www.w3.org/2000/svg">
<g id="icon-delete">
<path id="Vector" d="M4.34984 14C4.08317 14 3.84984 13.9 3.64984 13.7C3.44984 13.5 3.34984 13.2667 3.34984 13V3.5H2.6665V2.5H5.79984V2H10.1998V2.5H13.3332V3.5H12.6498V13C12.6498 13.2667 12.5498 13.5 12.3498 13.7C12.1498 13.9 11.9165 14 11.6498 14H4.34984ZM11.6498 3.5H4.34984V13H11.6498V3.5ZM6.1165 11.5667H7.1165V4.91667H6.1165V11.5667ZM8.88317 11.5667H9.88317V4.91667H8.88317V11.5667ZM4.34984 3.5V13V3.5Z" fill="#FBFBFB" fill-opacity="0.5"/>
</g>
</svg>
