<svg width="20" height="20" viewBox="0 0 20 20" fill="none" xmlns="http://www.w3.org/2000/svg">
<path fill-rule="evenodd" clip-rule="evenodd" d="M10 10.8333C6.77834 10.8333 4.16667 13.445 4.16667 16.6666V18.3333C4.16667 18.7935 3.79357 19.1666 3.33333 19.1666C2.8731 19.1666 2.5 18.7935 2.5 18.3333V16.6666C2.5 12.5245 5.85786 9.16663 10 9.16663C14.1421 9.16663 17.5 12.5245 17.5 16.6666V18.3333C17.5 18.7935 17.1269 19.1666 16.6667 19.1666C16.2064 19.1666 15.8333 18.7935 15.8333 18.3333V16.6666C15.8333 13.445 13.2217 10.8333 10 10.8333Z" fill="#FBFBFB" fill-opacity="0.8"/>
<path fill-rule="evenodd" clip-rule="evenodd" d="M10 9.16671C11.8409 9.16671 13.3333 7.67432 13.3333 5.83337C13.3333 3.99242 11.8409 2.50004 10 2.50004C8.15905 2.50004 6.66667 3.99242 6.66667 5.83337C6.66667 7.67432 8.15905 9.16671 10 9.16671ZM10 10.8334C12.7614 10.8334 15 8.5948 15 5.83337C15 3.07195 12.7614 0.833374 10 0.833374C7.23858 0.833374 5 3.07195 5 5.83337C5 8.5948 7.23858 10.8334 10 10.8334Z" fill="#FBFBFB" fill-opacity="0.8"/>
</svg>
