<svg width="20" height="20" viewBox="0 0 20 20" fill="none" xmlns="http://www.w3.org/2000/svg">
<path fill-rule="evenodd" clip-rule="evenodd" d="M9.19099 12.5006C9.6509 12.4832 10.0378 12.842 10.0552 13.3019C10.0943 14.3387 10.1493 15.0955 10.2033 15.638C10.2566 16.1724 10.5791 16.4938 11.0288 16.5488C11.559 16.6136 12.3069 16.6667 13.3333 16.6667C14.3597 16.6667 15.1077 16.6136 15.6379 16.5488C16.0873 16.4939 16.41 16.1722 16.4633 15.6378C16.5636 14.6307 16.6667 12.8907 16.6666 10C16.6666 7.10932 16.5636 5.36934 16.4633 4.36223C16.41 3.82777 16.0873 3.50614 15.6379 3.4512C15.1077 3.38638 14.3597 3.33333 13.3333 3.33333C12.3069 3.33333 11.559 3.38638 11.0288 3.45119C10.5791 3.50616 10.2566 3.82765 10.2033 4.36198C10.1493 4.90454 10.0943 5.66128 10.0552 6.6981C10.0378 7.15801 9.6509 7.51677 9.19099 7.49941C8.73108 7.48204 8.37232 7.09514 8.38968 6.63523C8.42986 5.57104 8.48682 4.77952 8.54487 4.19676C8.66692 2.97162 9.52109 1.95642 10.8266 1.79684C11.4342 1.72255 12.2507 1.66667 13.3333 1.66667C14.416 1.66667 15.2325 1.72256 15.8401 1.79685C17.1457 1.95645 17.9997 2.97212 18.1217 4.19702C18.2292 5.27557 18.3333 7.07373 18.3333 10C18.3333 12.9263 18.2292 14.7244 18.1217 15.803C17.9997 17.0279 17.1457 18.0436 15.8401 18.2032C15.2325 18.2774 14.416 18.3333 13.3333 18.3333C12.2507 18.3333 11.4342 18.2774 10.8266 18.2032C9.52109 18.0436 8.66692 17.0284 8.54487 15.8032C8.48682 15.2205 8.42986 14.429 8.38968 13.3648C8.37232 12.9049 8.73108 12.5179 9.19099 12.5006Z" fill="#FBFBFB" fill-opacity="0.8"/>
<path fill-rule="evenodd" clip-rule="evenodd" d="M6.00592 12.3274C6.33136 12.6528 6.33136 13.1805 6.00592 13.5059C5.68049 13.8314 5.15285 13.8314 4.82741 13.5059L1.91074 10.5893C1.58531 10.2638 1.58531 9.73618 1.91074 9.41074L4.82741 6.49408C5.15285 6.16864 5.68049 6.16864 6.00592 6.49408C6.33136 6.81951 6.33136 7.34715 6.00592 7.67259L4.51184 9.16667H12.5C12.9602 9.16667 13.3333 9.53976 13.3333 10C13.3333 10.4602 12.9602 10.8333 12.5 10.8333L4.51184 10.8333L6.00592 12.3274Z" fill="#FBFBFB" fill-opacity="0.8"/>
</svg>
