<svg xmlns="http://www.w3.org/2000/svg" width="20" height="20" viewBox="0 0 20 20" fill="none">
  <path d="M19.683 2.79286L18.3075 3.84286C16.4321 1.50238 13.5154 0 10.2402 0C4.58481 0 0.00732492 4.46429 8.73925e-06 9.9881C-0.00730744 15.5167 4.57994 20 10.2402 20C14.6616 20 18.4295 17.2619 19.8634 13.4262C19.9 13.3262 19.8464 13.2143 19.7439 13.181L18.3612 12.7167C18.313 12.7005 18.2602 12.7035 18.2142 12.7248C18.1681 12.7462 18.1325 12.7843 18.1149 12.831C18.071 12.95 18.0222 13.069 17.971 13.1857C17.5491 14.1619 16.9443 15.0381 16.1736 15.7905C15.4092 16.5382 14.5042 17.1348 13.5081 17.5476C12.4765 17.9738 11.3767 18.1905 10.2451 18.1905C9.11109 18.1905 8.01366 17.9738 6.98208 17.5476C5.98507 17.1366 5.07968 16.5397 4.31655 15.7905C3.55006 15.0443 2.93961 14.1596 2.51921 13.1857C2.08268 12.1762 1.86076 11.1048 1.86076 9.99762C1.86076 8.89048 2.08268 7.81905 2.51921 6.80952C2.94111 5.83333 3.54592 4.95714 4.31655 4.20476C5.08719 3.45238 5.98464 2.8619 6.98208 2.44762C8.01366 2.02143 9.11353 1.80476 10.2451 1.80476C11.3791 1.80476 12.4765 2.02143 13.5081 2.44762C14.5051 2.85868 15.4105 3.45552 16.1736 4.20476C16.4151 4.44048 16.6419 4.69048 16.8516 4.95238L15.3835 6.07143C15.3544 6.09337 15.3323 6.12286 15.3197 6.15653C15.307 6.19019 15.3044 6.22666 15.312 6.26173C15.3197 6.2968 15.3373 6.32905 15.3629 6.35477C15.3885 6.3805 15.421 6.39865 15.4567 6.40714L19.7391 7.43095C19.861 7.45952 19.9805 7.36905 19.9805 7.24762L20 2.94048C19.9976 2.78333 19.8098 2.69524 19.683 2.79286Z" fill="#ECF1F9"/>
</svg>