<svg xmlns="http://www.w3.org/2000/svg" width="16" height="18" viewBox="0 0 16 18" fill="none">
  <path d="M13.3333 12.4898C12.7 12.4898 12.1156 12.7194 11.6578 13.1028L7.05333 9.66122C7.13043 9.22401 7.13043 8.77599 7.05333 8.33878L11.6578 4.89719C12.1156 5.28061 12.7 5.5102 13.3333 5.5102C14.8044 5.5102 16 4.275 16 2.7551C16 1.2352 14.8044 0 13.3333 0C11.8622 0 10.6667 1.2352 10.6667 2.7551C10.6667 3.02143 10.7022 3.27628 10.7711 3.51964L6.39778 6.79133C5.74889 5.90281 4.71778 5.32653 3.55556 5.32653C1.59111 5.32653 0 6.97041 0 9C0 11.0296 1.59111 12.6735 3.55556 12.6735C4.71778 12.6735 5.74889 12.0972 6.39778 11.2087L10.7711 14.4804C10.7022 14.7237 10.6667 14.9809 10.6667 15.2449C10.6667 16.7648 11.8622 18 13.3333 18C14.8044 18 16 16.7648 16 15.2449C16 13.725 14.8044 12.4898 13.3333 12.4898ZM13.3333 1.56122C13.9711 1.56122 14.4889 2.09617 14.4889 2.7551C14.4889 3.41403 13.9711 3.94898 13.3333 3.94898C12.6956 3.94898 12.1778 3.41403 12.1778 2.7551C12.1778 2.09617 12.6956 1.56122 13.3333 1.56122ZM3.55556 11.0204C2.47778 11.0204 1.6 10.1135 1.6 9C1.6 7.88648 2.47778 6.97959 3.55556 6.97959C4.63333 6.97959 5.51111 7.88648 5.51111 9C5.51111 10.1135 4.63333 11.0204 3.55556 11.0204ZM13.3333 16.4388C12.6956 16.4388 12.1778 15.9038 12.1778 15.2449C12.1778 14.586 12.6956 14.051 13.3333 14.051C13.9711 14.051 14.4889 14.586 14.4889 15.2449C14.4889 15.9038 13.9711 16.4388 13.3333 16.4388Z" fill="#ECF1F9"/>
</svg>