<svg width="20" height="21" viewBox="0 0 20 21" fill="none" xmlns="http://www.w3.org/2000/svg">
<g id="icon-close">
<path id="Shape" fill-rule="evenodd" clip-rule="evenodd" d="M4.41083 5.03576C4.73626 4.71033 5.2639 4.71033 5.58934 5.03576L10.0001 9.44651L14.4108 5.03576C14.7363 4.71033 15.2639 4.71033 15.5893 5.03576C15.9148 5.3612 15.9148 5.88884 15.5893 6.21428L11.1786 10.625L15.5893 15.0358C15.9148 15.3612 15.9148 15.8888 15.5893 16.2143C15.2639 16.5397 14.7363 16.5397 14.4108 16.2143L10.0001 11.8035L5.58934 16.2143C5.2639 16.5397 4.73626 16.5397 4.41083 16.2143C4.08539 15.8888 4.08539 15.3612 4.41083 15.0358L8.82157 10.625L4.41083 6.21428C4.08539 5.88884 4.08539 5.3612 4.41083 5.03576Z" fill="#FBFBFB" fill-opacity="0.8"/>
</g>
</svg>
