<svg width="26" height="26" viewBox="0 0 26 26" fill="none" xmlns="http://www.w3.org/2000/svg">
<path d="M21.7278 4.50354C22.0935 4.13789 22.0955 3.54218 21.7047 3.20353C19.3283 1.14419 16.281 1.57232e-07 13.1157 0C9.6372 -1.72789e-07 6.30117 1.38182 3.8415 3.84147C1.38183 6.30112 4.3541e-07 9.63713 0 13.1156C-3.96207e-07 16.2809 1.1442 19.3282 3.20355 21.7046C3.5422 22.0954 4.13792 22.0933 4.50357 21.7277C4.86923 21.362 4.8658 20.7715 4.53181 20.3767C2.82128 18.3547 1.87263 15.7841 1.87263 13.1156C1.87263 10.1338 3.05716 7.27408 5.16565 5.16561C7.27413 3.05714 10.1339 1.87262 13.1157 1.87262C15.7842 1.87262 18.3549 2.82126 20.3768 4.53178C20.7716 4.86576 21.3622 4.86919 21.7278 4.50354Z" fill="#20C1FF"/>
</svg>
