<svg xmlns="http://www.w3.org/2000/svg" width="20" height="20" viewBox="0 0 20 20" fill="none">
  <path fill-rule="evenodd" clip-rule="evenodd" d="M16.9346 16.9346C17.3525 16.5153 17.6807 16.0115 17.8947 15.4589C18.0999 14.9282 18.2409 14.323 18.2819 13.4359C18.3229 12.5474 18.3332 12.2628 18.3332 9.99996C18.3332 7.73714 18.3229 7.45252 18.2819 6.56406C18.2409 5.67688 18.0999 5.07175 17.8947 4.54099C17.6854 3.98501 17.3573 3.48142 16.9333 3.06534C16.5172 2.64137 16.0136 2.31323 15.4578 2.10381C14.927 1.89868 14.3219 1.75765 13.4348 1.71663C12.5464 1.6756 12.2618 1.66663 9.9992 1.66663C7.73655 1.66663 7.45196 1.6756 6.56356 1.71791C5.67645 1.75637 5.07137 1.8974 4.54064 2.10381C3.98499 2.31371 3.48155 2.64178 3.06511 3.06534C2.64158 3.48181 2.31354 3.98529 2.10365 4.54099C1.89854 5.07175 1.75752 5.67688 1.7165 6.56406C1.67548 7.45252 1.6665 7.73714 1.6665 9.99996C1.6665 12.2628 1.67548 12.5474 1.71778 13.4359C1.75624 14.323 1.89726 14.9282 2.10365 15.4589C2.31389 16.0153 2.64207 16.5179 3.06511 16.9346C3.48175 17.3577 3.98556 17.6859 4.54064 17.8961C5.07137 18.1012 5.67645 18.2423 6.56356 18.2833C7.45196 18.323 7.73655 18.3333 9.9992 18.3333C12.2618 18.3333 12.5464 18.323 13.4348 18.282C14.3219 18.2435 14.927 18.1025 15.4578 17.8961C16.0112 17.6819 16.5138 17.3544 16.9333 16.9346H16.9346ZM2.94846 9.01919V10.9807C2.94589 12.0333 2.94589 12.3064 2.9741 12.9038C3.00743 13.6551 3.04845 14.2064 3.17408 14.6218C3.29458 15.0218 3.42919 15.4294 3.87018 15.9192C4.31117 16.4102 4.7355 16.632 5.27648 16.7961C5.81875 16.9589 6.49947 16.9935 7.09045 17.0205C7.75963 17.0512 8.02627 17.0512 9.43129 17.0512H10.9478C12.0272 17.0525 12.299 17.0538 12.9041 17.0256C13.654 16.991 14.2053 16.95 14.6219 16.8256C15.0206 16.7051 15.4283 16.5692 15.918 16.1294C16.409 15.6884 16.6307 15.2628 16.7948 14.7218C16.9576 14.1807 16.9935 13.5 17.0205 12.9089C17.0499 12.2397 17.0499 11.9743 17.0499 10.573V9.43201C17.0499 8.02688 17.0499 7.7615 17.0205 7.09099C16.9935 6.49996 16.9576 5.81919 16.7948 5.27816C16.632 4.73586 16.4102 4.3115 15.918 3.87047C15.427 3.42945 15.0206 3.29483 14.6219 3.17432C14.2053 3.04996 13.654 3.00765 12.9041 2.97432C12.2524 2.94753 11.6 2.93898 10.9478 2.94868H9.43129C8.02627 2.94868 7.75963 2.94868 7.09045 2.97816C6.49947 3.00509 5.81875 3.04098 5.27648 3.20381C4.7355 3.36791 4.31117 3.5897 3.87018 4.08073C3.42919 4.57175 3.2933 4.97816 3.17408 5.37816C3.04845 5.79355 3.00743 6.34483 2.9741 7.09611C2.94589 7.69355 2.94589 7.96663 2.94846 9.01919ZM9.9992 7.11534C9.23421 7.11534 8.50055 7.41926 7.95962 7.96023C7.41869 8.5012 7.1148 9.23491 7.1148 9.99996C7.1148 10.765 7.41869 11.4987 7.95962 12.0397C8.50055 12.5807 9.23421 12.8846 9.9992 12.8846C10.7642 12.8846 11.4978 12.5807 12.0388 12.0397C12.5797 11.4987 12.8836 10.765 12.8836 9.99996C12.8836 9.23491 12.5797 8.5012 12.0388 7.96023C11.4978 7.41926 10.7642 7.11534 9.9992 7.11534ZM5.83285 9.99996C5.83285 8.89489 6.2718 7.83508 7.05314 7.05368C7.83449 6.27228 8.89421 5.83329 9.9992 5.83329C11.1042 5.83329 12.1639 6.27228 12.9452 7.05368C13.7266 7.83508 14.1655 8.89489 14.1655 9.99996C14.1655 11.105 13.7266 12.1648 12.9452 12.9462C12.1639 13.7276 11.1042 14.1666 9.9992 14.1666C8.89421 14.1666 7.83449 13.7276 7.05314 12.9462C6.2718 12.1648 5.83285 11.105 5.83285 9.99996ZM14.4476 6.51278C14.7026 6.51278 14.9471 6.41148 15.1274 6.23115C15.3077 6.05083 15.409 5.80626 15.409 5.55124C15.409 5.29623 15.3077 5.05165 15.1274 4.87133C14.9471 4.69101 14.7026 4.5897 14.4476 4.5897C14.1926 4.5897 13.948 4.69101 13.7677 4.87133C13.5874 5.05165 13.4861 5.29623 13.4861 5.55124C13.4861 5.80626 13.5874 6.05083 13.7677 6.23115C13.948 6.41148 14.1926 6.51278 14.4476 6.51278Z" fill="#FBFBFB" fill-opacity="0.8"/>
</svg>