<svg width="24" height="24" viewBox="0 0 24 24" fill="none" xmlns="http://www.w3.org/2000/svg">
<g id="icon-socials">
<path id="Vector" d="M11.1018 7.81497L11.8528 4.27897C11.9074 4.02202 12.0122 3.77835 12.161 3.56189C12.3099 3.34542 12.4999 3.1604 12.7203 3.01739C12.9406 2.87438 13.187 2.77619 13.4453 2.72841C13.7037 2.68064 13.9689 2.68423 14.2258 2.73897L17.4218 3.41897C17.7164 3.09179 18.1108 2.87098 18.5437 2.79077C18.9766 2.71056 19.4239 2.77545 19.8161 2.97536C20.2084 3.17528 20.5238 3.49905 20.7133 3.89646C20.9028 4.29387 20.9559 4.7427 20.8643 5.17335C20.7727 5.604 20.5415 5.99239 20.2067 6.27829C19.8719 6.56418 19.4521 6.7316 19.0124 6.75458C18.5727 6.77755 18.1377 6.6548 17.7749 6.40536C17.4121 6.15592 17.1418 5.79373 17.0058 5.37497L13.8098 4.69497L13.1438 7.82997C14.9278 7.96697 16.7008 8.55997 18.3068 9.52997C18.784 9.26462 19.3214 9.12614 19.8674 9.12776C20.4134 9.12938 20.9499 9.27105 21.4256 9.53923C21.9013 9.80741 22.3002 10.1931 22.5842 10.6595C22.8682 11.1259 23.0278 11.6573 23.0478 12.203V12.224C23.0554 12.7131 22.9506 13.1974 22.7413 13.6396C22.532 14.0817 22.2239 14.4698 21.8408 14.774C21.839 14.815 21.8363 14.856 21.8328 14.897C21.8328 18.895 17.3828 21.927 12.0338 21.927C6.70179 21.927 2.32579 18.903 2.32879 14.974C2.32443 14.9137 2.3211 14.8534 2.31879 14.793C1.67291 14.3082 1.2348 13.5966 1.09274 12.8016C0.950695 12.0066 1.11527 11.1873 1.5533 10.5088C1.99133 9.83032 2.67025 9.3431 3.45325 9.14532C4.23624 8.94754 5.0651 9.0539 5.77279 9.44297C7.3879 8.46961 9.21847 7.91038 11.1018 7.81497ZM20.3878 13.341C20.7958 13.138 21.0518 12.721 21.0488 12.266C21.0384 12.0372 20.9623 11.8162 20.8296 11.6295C20.6969 11.4428 20.5132 11.2983 20.3005 11.2133C20.0879 11.1283 19.8552 11.1063 19.6304 11.1501C19.4055 11.1938 19.1981 11.3014 19.0328 11.46L18.4478 12.02L17.7778 11.565C16.1628 10.467 14.3258 9.83997 12.5478 9.80097H11.5418C9.66679 9.82997 7.89079 10.401 6.30479 11.476L5.64179 11.926L5.05779 11.376C4.93185 11.2578 4.78173 11.1683 4.61781 11.1139C4.45389 11.0594 4.28009 11.0412 4.10845 11.0606C3.93681 11.0799 3.77143 11.1364 3.62375 11.226C3.47607 11.3155 3.34963 11.4362 3.25317 11.5794C3.15672 11.7227 3.09255 11.8853 3.06513 12.0558C3.0377 12.2263 3.04766 12.4008 3.09433 12.5671C3.14099 12.7334 3.22324 12.8876 3.33538 13.019C3.44752 13.1503 3.58687 13.2558 3.74379 13.328L4.37679 13.618L4.32279 14.313C4.30979 14.483 4.30979 14.652 4.32579 14.897C4.32579 17.607 7.68179 19.927 12.0338 19.927C16.4048 19.927 19.8328 17.591 19.8358 14.821C19.8488 14.6519 19.8488 14.4821 19.8358 14.313L19.7838 13.641L20.3878 13.341ZM6.99979 13.5C6.99979 13.1021 7.15783 12.7206 7.43913 12.4393C7.72044 12.158 8.10197 12 8.49979 12C8.89762 12 9.27915 12.158 9.56045 12.4393C9.84176 12.7206 9.99979 13.1021 9.99979 13.5C9.99979 13.8978 9.84176 14.2793 9.56045 14.5606C9.27915 14.8419 8.89762 15 8.49979 15C8.10197 15 7.72044 14.8419 7.43913 14.5606C7.15783 14.2793 6.99979 13.8978 6.99979 13.5ZM13.9998 13.5C13.9998 13.1021 14.1578 12.7206 14.4391 12.4393C14.7204 12.158 15.102 12 15.4998 12C15.8976 12 16.2791 12.158 16.5605 12.4393C16.8418 12.7206 16.9998 13.1021 16.9998 13.5C16.9998 13.8978 16.8418 14.2793 16.5605 14.5606C16.2791 14.8419 15.8976 15 15.4998 15C15.102 15 14.7204 14.8419 14.4391 14.5606C14.1578 14.2793 13.9998 13.8978 13.9998 13.5ZM12.0158 18.603C10.6188 18.603 9.24879 18.233 8.13379 17.393C8.06644 17.3117 8.03185 17.2081 8.03679 17.1027C8.04173 16.9972 8.08585 16.8974 8.16051 16.8227C8.23517 16.748 8.33501 16.7039 8.44048 16.699C8.54595 16.694 8.64948 16.7286 8.73079 16.796C9.67579 17.489 10.8538 17.786 11.9998 17.786C13.1458 17.786 14.3298 17.511 15.2838 16.827C15.339 16.7732 15.4073 16.7348 15.482 16.7158C15.5567 16.6968 15.6351 16.6977 15.7093 16.7186C15.7835 16.7395 15.8508 16.7795 15.9047 16.8347C15.9585 16.8899 15.9968 16.9583 16.0158 17.033C16.032 17.1078 16.0296 17.1855 16.0089 17.2593C15.9882 17.333 15.9497 17.4005 15.8968 17.456C15.2128 18.253 13.4128 18.603 12.0158 18.603Z" fill="#FBFBFB" fill-opacity="0.85"/>
</g>
</svg>
