<svg width="20" height="20" viewBox="0 0 20 20" fill="none" xmlns="http://www.w3.org/2000/svg">
<path fill-rule="evenodd" clip-rule="evenodd" d="M5.85352 3.12496C5.85352 2.31996 6.50685 1.66663 7.31185 1.66663H16.8752C17.6802 1.66663 18.3335 2.31996 18.3335 3.12496V12.7066C18.3335 13.0934 18.1799 13.4643 17.9064 13.7378C17.6329 14.0113 17.262 14.165 16.8752 14.165H7.31185C6.92508 14.165 6.55414 14.0113 6.28065 13.7378C6.00716 13.4643 5.85352 13.0934 5.85352 12.7066V3.12496ZM7.31185 2.91663C7.2566 2.91663 7.20361 2.93858 7.16454 2.97765C7.12546 3.01672 7.10352 3.06971 7.10352 3.12496V12.7066C7.10352 12.8225 7.19685 12.915 7.31185 12.915H16.8752C16.9304 12.915 16.9834 12.893 17.0225 12.8539C17.0616 12.8149 17.0835 12.7619 17.0835 12.7066V3.12496C17.0835 3.06971 17.0616 3.01672 17.0225 2.97765C16.9834 2.93858 16.9304 2.91663 16.8752 2.91663H7.31185Z" fill="#ECF1F9"/>
<path d="M1.6626 8.95746C1.66249 8.76588 1.70013 8.57615 1.77337 8.39912C1.84661 8.22209 1.95401 8.06123 2.08944 7.92572C2.22487 7.79021 2.38567 7.68272 2.56266 7.60938C2.73965 7.53604 2.92935 7.49829 3.12093 7.49829H4.3751C4.54086 7.49829 4.69983 7.56414 4.81704 7.68135C4.93425 7.79856 5.0001 7.95753 5.0001 8.12329C5.0001 8.28905 4.93425 8.44802 4.81704 8.56523C4.69983 8.68244 4.54086 8.74829 4.3751 8.74829H3.12093C3.06568 8.74829 3.01269 8.77024 2.97362 8.80931C2.93455 8.84838 2.9126 8.90137 2.9126 8.95662L2.91676 16.875C2.91676 16.99 3.00926 17.0833 3.1251 17.0833H11.0418C11.097 17.0833 11.15 17.0613 11.1891 17.0223C11.2281 16.9832 11.2501 16.9302 11.2501 16.875V15.6166C11.2501 15.4509 11.3159 15.2919 11.4332 15.1747C11.5504 15.0575 11.7093 14.9916 11.8751 14.9916C12.0409 14.9916 12.1998 15.0575 12.317 15.1747C12.4342 15.2919 12.5001 15.4509 12.5001 15.6166V16.875C12.5001 17.2617 12.3465 17.6327 12.073 17.9062C11.7995 18.1796 11.4285 18.3333 11.0418 18.3333H3.1251C2.73832 18.3333 2.36739 18.1796 2.0939 17.9062C1.82041 17.6327 1.66676 17.2617 1.66676 16.875L1.6626 8.95746Z" fill="#ECF1F9"/>
</svg>
