<svg xmlns="http://www.w3.org/2000/svg" width="20" height="20" viewBox="0 0 20 20" fill="none">
  <path d="M18.0708 2.47677C17.8974 2.32984 17.6874 2.23264 17.4632 2.1955C17.239 2.15836 17.0089 2.18266 16.7973 2.26584L2.37547 7.9299C2.12251 8.02627 1.90825 8.20313 1.76567 8.43323C1.62309 8.66333 1.56011 8.93392 1.58641 9.20334C1.60988 9.47264 1.72001 9.72709 1.90031 9.92851C2.0806 10.1299 2.32134 10.2675 2.58641 10.3205L6.25047 11.0471V15.6252C6.25034 15.8729 6.32379 16.115 6.46149 16.3209C6.59919 16.5267 6.79495 16.687 7.02391 16.7815C7.17544 16.8424 7.33713 16.8743 7.50047 16.8752C7.66465 16.8758 7.82729 16.8436 7.97887 16.7806C8.13046 16.7175 8.26795 16.6249 8.38328 16.508L10.4145 14.4846L13.4848 17.1877C13.7115 17.3876 14.0029 17.4986 14.3052 17.5002C14.4381 17.5029 14.5704 17.4818 14.6958 17.4377C14.9019 17.3725 15.0875 17.2546 15.2341 17.0956C15.3807 16.9367 15.4833 16.7422 15.5317 16.5315L18.4692 3.70334C18.5206 3.48198 18.5106 3.25082 18.4404 3.0347C18.3702 2.81859 18.2424 2.6257 18.0708 2.47677ZM6.72703 9.8674L2.83641 9.09396L13.7427 4.8049L6.72703 9.8674ZM7.50047 15.6252V11.9221L9.46922 13.6565L7.50047 15.6252ZM14.313 16.2502L7.87547 10.5861L17.1489 3.89084L14.313 16.2502Z" fill="#FBFBFB" fill-opacity="0.85"/>
</svg>