<svg xmlns="http://www.w3.org/2000/svg" width="20" height="20" viewBox="0 0 20 20" fill="none">
  <path d="M9.99984 18.3333C8.83317 18.3333 7.74289 18.1145 6.729 17.677C5.71512 17.2395 4.83317 16.6458 4.08317 15.8958C3.33317 15.1458 2.74289 14.2604 2.31234 13.2395C1.88178 12.2187 1.6665 11.125 1.6665 9.95829C1.6665 8.79163 1.88178 7.70482 2.31234 6.69788C2.74289 5.69093 3.33317 4.81246 4.08317 4.06246C4.83317 3.31246 5.71512 2.72565 6.729 2.30204C7.74289 1.87843 8.83317 1.66663 9.99984 1.66663C11.1665 1.66663 12.2568 1.87843 13.2707 2.30204C14.2846 2.72565 15.1665 3.31246 15.9165 4.06246C16.6665 4.81246 17.2568 5.69093 17.6873 6.69788C18.1179 7.70482 18.3332 8.79163 18.3332 9.95829C18.3332 11.125 18.1179 12.2187 17.6873 13.2395C17.2568 14.2604 16.6665 15.1458 15.9165 15.8958C15.1665 16.6458 14.2846 17.2395 13.2707 17.677C12.2568 18.1145 11.1665 18.3333 9.99984 18.3333ZM9.99984 17.125C10.4859 16.625 10.8922 16.052 11.2186 15.4062C11.545 14.7604 11.8123 13.993 12.0207 13.1041H7.99984C8.19428 13.9375 8.4547 14.6875 8.78109 15.3541C9.10748 16.0208 9.51373 16.6111 9.99984 17.125ZM8.229 16.875C7.88178 16.3472 7.58317 15.7777 7.33317 15.1666C7.08317 14.5555 6.87484 13.868 6.70817 13.1041H3.58317C4.11095 14.0902 4.72206 14.8645 5.4165 15.427C6.11095 15.9895 7.04845 16.4722 8.229 16.875ZM11.7915 16.8541C12.7915 16.5347 13.6908 16.0555 14.4894 15.4166C15.288 14.7777 15.9304 14.0069 16.4165 13.1041H13.3123C13.1318 13.8541 12.92 14.5347 12.6769 15.1458C12.4339 15.7569 12.1387 16.3263 11.7915 16.8541ZM3.1665 11.8541H6.479C6.43734 11.4791 6.41303 11.1423 6.40609 10.8437C6.39914 10.5451 6.39567 10.25 6.39567 9.95829C6.39567 9.61107 6.40262 9.30204 6.4165 9.03121C6.43039 8.76038 6.45817 8.45829 6.49984 8.12496H3.1665C3.06928 8.45829 3.00331 8.7569 2.96859 9.02079C2.93387 9.28468 2.9165 9.59718 2.9165 9.95829C2.9165 10.3194 2.93387 10.6423 2.96859 10.927C3.00331 11.2118 3.06928 11.5208 3.1665 11.8541ZM7.77067 11.8541H12.2498C12.3054 11.4236 12.3401 11.0729 12.354 10.802C12.3679 10.5312 12.3748 10.25 12.3748 9.95829C12.3748 9.68052 12.3679 9.41315 12.354 9.15621C12.3401 8.89927 12.3054 8.55552 12.2498 8.12496H7.77067C7.71512 8.55552 7.68039 8.89927 7.6665 9.15621C7.65262 9.41315 7.64567 9.68052 7.64567 9.95829C7.64567 10.25 7.65262 10.5312 7.6665 10.802C7.68039 11.0729 7.71512 11.4236 7.77067 11.8541ZM13.4998 11.8541H16.8332C16.9304 11.5208 16.9964 11.2118 17.0311 10.927C17.0658 10.6423 17.0832 10.3194 17.0832 9.95829C17.0832 9.59718 17.0658 9.28468 17.0311 9.02079C16.9964 8.7569 16.9304 8.45829 16.8332 8.12496H13.5207C13.5623 8.61107 13.5901 8.9826 13.604 9.23954C13.6179 9.49649 13.6248 9.73607 13.6248 9.95829C13.6248 10.2638 13.6144 10.552 13.5936 10.8229C13.5728 11.0937 13.5415 11.4375 13.4998 11.8541ZM13.2915 6.87496H16.4165C15.9582 5.91663 15.3297 5.11802 14.5311 4.47913C13.7325 3.84024 12.8123 3.38885 11.7707 3.12496C12.1179 3.63885 12.413 4.1944 12.6561 4.79163C12.8991 5.38885 13.1109 6.08329 13.2915 6.87496ZM7.99984 6.87496H12.0415C11.8887 6.13885 11.6318 5.42704 11.2707 4.73954C10.9096 4.05204 10.4859 3.4444 9.99984 2.91663C9.55539 3.29163 9.18039 3.78468 8.87484 4.39579C8.56928 5.0069 8.27762 5.83329 7.99984 6.87496ZM3.58317 6.87496H6.729C6.88178 6.12496 7.07623 5.45482 7.31234 4.86454C7.54845 4.27427 7.84706 3.70135 8.20817 3.14579C7.1665 3.40968 6.25678 3.85413 5.479 4.47913C4.70123 5.10413 4.06928 5.90274 3.58317 6.87496Z" fill="#FBFBFB" fill-opacity="0.85"/>
</svg>