<svg width="72" height="72" viewBox="0 0 72 72" fill="none" xmlns="http://www.w3.org/2000/svg">
<g id="icons/create">
<path id="Shape" fill-rule="evenodd" clip-rule="evenodd" d="M36 12C30.1433 12 24.7445 12.483 20.4111 13.0553C16.5112 13.5704 13.5704 16.5112 13.0553 20.4111C12.483 24.7445 12 30.1433 12 36C12 41.8567 12.483 47.2555 13.0553 51.5889C13.5704 55.4888 16.5112 58.4296 20.4111 58.9447C24.7445 59.517 30.1433 60 36 60C41.8567 60 47.2555 59.517 51.5889 58.9447C55.4888 58.4296 58.4296 55.4888 58.9447 51.5889C59.517 47.2555 60 41.8567 60 36C60 30.1433 59.517 24.7445 58.9447 20.4111C58.4296 16.5112 55.4888 13.5704 51.5889 13.0553C47.2555 12.483 41.8567 12 36 12ZM19.6255 7.10698C13.0351 7.97737 7.97737 13.0351 7.10698 19.6255C6.5086 24.1562 6 29.8238 6 36C6 42.1762 6.5086 47.8438 7.10698 52.3745C7.97737 58.9649 13.0351 64.0226 19.6255 64.893C24.1562 65.4914 29.8238 66 36 66C42.1762 66 47.8438 65.4914 52.3745 64.893C58.9649 64.0226 64.0226 58.9649 64.893 52.3745C65.4914 47.8438 66 42.1762 66 36C66 29.8238 65.4914 24.1562 64.893 19.6255C64.0226 13.0351 58.9649 7.97737 52.3745 7.10698C47.8438 6.5086 42.1762 6 36 6C29.8238 6 24.1562 6.5086 19.6255 7.10698Z" fill="#FBFBFB" fill-opacity="0.5"/>
<g id="Shape_2">
<path d="M26.9999 33C30.3136 33 32.9999 30.3137 32.9999 27C32.9999 23.6863 30.3136 21 26.9999 21C23.6862 21 20.9999 23.6863 20.9999 27C20.9999 30.3137 23.6862 33 26.9999 33Z" fill="#FBFBFB" fill-opacity="0.5"/>
<path d="M54.3638 38.1219L59.7468 43.5048C59.561 46.3135 59.2898 48.9196 58.9908 51.2342L50.1212 42.3645C48.9496 41.1929 47.0501 41.1929 45.8785 42.3645L39.3638 48.8792C35.8491 52.394 30.1506 52.394 26.6359 48.8792L26.1212 48.3645C24.9496 47.1929 23.0501 47.193 21.8786 48.3645L14.6514 55.5917C13.8141 54.4566 13.254 53.0942 13.0551 51.5889C12.9467 50.768 12.8415 49.9088 12.7422 49.0156L17.6359 44.1219C21.1506 40.6072 26.8491 40.6072 30.3638 44.1219L30.8785 44.6366C32.0501 45.8082 33.9496 45.8082 35.1212 44.6366L41.6359 38.1219C45.1506 34.6072 50.8491 34.6072 54.3638 38.1219Z" fill="#FBFBFB" fill-opacity="0.5"/>
</g>
</g>
</svg>
