<svg width="116" height="116" viewBox="0 0 116 116" fill="none" xmlns="http://www.w3.org/2000/svg">
<path fill-rule="evenodd" clip-rule="evenodd" d="M72.3867 46.6821C72.9063 45.7821 73.1799 44.7611 73.1799 43.7218C73.1799 42.6825 72.9063 41.6615 72.3867 40.7614L63.6083 25.5571C63.0886 24.6571 62.3412 23.9098 61.4412 23.3902C60.5411 22.8706 59.5202 22.597 58.481 22.597C57.4417 22.597 56.4208 22.8706 55.5207 23.3902C54.6207 23.9098 53.8733 24.6571 53.3536 25.5571L19.2742 84.5785C18.7545 85.4785 18.481 86.4995 18.481 87.5388C18.481 88.578 18.7545 89.599 19.2741 90.4991C19.7938 91.3991 20.5412 92.1465 21.4412 92.6662C22.3412 93.1859 23.3622 93.4595 24.4015 93.4595H41.9583C42.9982 93.4602 44.02 93.1869 44.9208 92.6672C45.8216 92.1475 46.5696 91.3998 47.0896 90.4991L72.3867 46.6821ZM92.5565 93.4634C93.5961 93.4641 94.6176 93.191 95.5181 92.6716C96.4187 92.1523 97.1667 91.4049 97.6868 90.5047C98.2069 89.6046 98.4808 88.5833 98.481 87.5437C98.4811 86.5041 98.2075 85.4827 97.6877 84.5824L85.3174 63.1574C84.7978 62.2574 84.0504 61.5101 83.1504 60.9905C82.2503 60.4709 81.2294 60.1973 80.1901 60.1973C79.1509 60.1973 78.1299 60.4709 77.2299 60.9905C76.3299 61.5101 75.5825 62.2574 75.0628 63.1574L62.6925 84.5824C62.1729 85.4825 61.8993 86.5034 61.8993 87.5427C61.8993 88.582 62.1729 89.603 62.6925 90.503C63.2121 91.4031 63.9595 92.1505 64.8596 92.6702C65.7596 93.1898 66.7806 93.4634 67.8198 93.4634H92.5604H92.5565Z" fill="white"/>
</svg>
